<svg width="123" height="121" viewBox="0 0 123 121" fill="none" xmlns="http://www.w3.org/2000/svg">
<path d="M54.3408 40.052C54.367 40.0258 54.3932 39.9996 54.4194 39.9733C54.5272 39.9034 54.6204 39.8161 54.7281 39.7403C54.7777 39.6588 54.8272 39.5772 54.8738 39.4986V39.5015C55.2466 39.3588 55.5583 39.0995 55.9107 38.9189C56.2573 38.7413 56.6039 38.6131 56.9738 38.6743C57.3845 38.7413 57.8098 38.7296 58.2117 38.9015C58.5146 39.0296 58.8671 38.9772 59.1991 39.0325C61.0574 39.3413 62.9128 39.6675 64.774 39.9588C65.5313 40.0782 66.2857 40.2326 67.0459 40.3258C68.2459 40.6287 69.443 40.9491 70.5673 41.485C70.6722 41.5345 70.7887 41.5462 70.8936 41.5928C71.3334 41.7646 71.7382 42.0064 72.1256 42.2744C72.3616 42.5948 72.7344 42.7375 73.0373 42.9705C73.9956 43.7191 74.8111 44.59 75.4665 45.6152C76.1306 46.6551 76.5354 47.7881 76.7685 48.9998C76.8879 49.6173 76.9083 50.2435 77.019 50.8581C77.1122 51.3794 77.6568 51.895 78.184 51.9183C78.6821 51.9387 79.1918 51.9998 79.5967 51.6008C79.9608 51.3882 80.0423 51.0357 80.0773 50.6513C80.1647 49.6843 79.8647 48.7668 79.6724 47.8434C79.4569 46.8065 79.1277 45.79 78.6355 44.8404C78.2132 44.0278 77.7355 43.253 77.1122 42.5773C76.4685 41.8782 75.8247 41.185 75.1432 40.5238C74.8548 40.2442 74.8665 40.1161 75.149 39.9413C77.0364 39.8976 78.9093 40.052 80.7763 40.2821C80.8258 40.285 80.8754 40.2879 80.9249 40.2908C81.7462 40.5151 82.5938 40.6083 83.4152 40.8326C83.7356 40.92 84.0356 41.0685 84.3677 41.1064C84.4929 41.2171 84.6444 41.2608 84.8017 41.2899C84.8745 41.3161 84.9473 41.3452 85.0201 41.3714C85.8939 41.6598 86.7444 41.9977 87.5483 42.4462C88.1833 42.8016 88.8066 43.1744 89.4124 43.5793C89.6426 43.7802 89.8727 43.9783 90.1202 44.156C90.1464 44.1793 90.1727 44.2055 90.1989 44.2288C90.2367 44.5667 90.6008 44.6336 90.7639 44.89C90.8746 45.0647 91.0814 45.2366 91.2212 45.4259C91.6843 46.0638 92.1649 46.7075 92.43 47.4531C92.5844 47.8871 92.7737 48.3095 92.8669 48.7784C92.9892 49.4017 93.1407 50.0221 93.2281 50.6513C93.3329 51.4173 93.2892 52.1804 93.2397 52.9523C93.1815 53.8436 92.9164 54.6766 92.6863 55.5271C92.4125 56.5495 91.9552 57.4932 91.4892 58.4369C91.2562 58.9087 90.9125 59.3223 90.7785 59.8466C90.7465 59.9748 90.7435 60.1 90.7348 60.2253C90.6766 60.4845 90.6707 60.7437 90.7377 61.003C91.0669 62.0399 92.2552 62.4069 93.129 61.8273C93.6999 61.4486 93.9475 60.8195 94.3553 60.3156C94.964 59.5612 95.2553 58.6233 95.6922 57.7699C95.7971 57.566 95.8786 57.3475 95.9951 57.1524C96.199 56.8145 96.5369 56.8 96.8777 56.8349C97.1893 56.864 97.3495 57.0941 97.434 57.3534C97.5039 57.5689 97.533 57.8048 97.533 58.0349C97.5418 59.1884 97.5971 60.3447 97.5214 61.4923C97.4369 62.7244 97.332 63.9681 96.9155 65.1506C96.8573 65.3108 96.8311 65.4739 96.8427 65.6429C96.6534 66.1147 96.5194 66.6041 96.365 67.0847C96.1175 67.8623 95.8204 68.6255 95.3485 69.2983C95.2204 69.4789 95.3019 69.7003 95.1883 69.875C94.9815 70.1925 94.8009 70.5275 94.5796 70.8333C94.3116 71.2032 93.9271 71.4333 93.5135 71.5993C93.1174 71.7566 92.7591 71.6488 92.3834 71.442C92.0484 71.2585 91.7746 70.9935 91.4397 70.8187C91.4018 70.4168 91.0203 70.2653 90.8135 69.9915C90.362 69.3944 89.8697 68.8265 89.3484 68.2905C88.9959 67.9293 88.7076 67.5128 88.3551 67.1487C88.1338 66.9216 87.9037 66.6769 87.7085 66.4206C87.292 65.8759 86.7532 65.4506 86.3367 64.906C85.6376 63.9972 84.7871 63.2312 83.9541 62.4564C83.7036 62.2234 83.6278 61.8826 83.3657 61.6641C83.2754 61.5884 83.3424 61.4603 83.4007 61.3467C83.6308 60.9098 83.9424 60.5457 84.3589 60.2806C84.8337 59.9777 85.0551 59.4563 85.4279 59.0631C86.0192 58.4427 86.3512 57.6446 86.7444 56.8902C87.1493 56.1155 87.359 55.2766 87.627 54.4552C87.7114 54.1989 87.7522 53.931 87.726 53.6572C87.8309 53.4882 87.7027 53.2843 87.8017 53.1154C87.8017 53.0892 87.8017 53.0659 87.8017 53.0397C87.9619 52.1979 87.9561 51.3532 87.8804 50.5056C87.8716 50.4153 87.8542 50.3309 87.8046 50.2522C87.7813 49.2211 87.525 48.2483 87.1114 47.3017C86.9163 46.8589 86.7357 46.4104 86.4881 45.9939C85.926 45.0414 84.7929 44.8346 83.9715 45.5686C83.3919 46.0871 83.4181 46.7541 83.6075 47.4444C83.823 48.2308 84.0473 49.0143 84.2512 49.8066C84.5949 51.1552 84.557 52.5154 84.5512 53.8814C84.4725 54.1086 84.458 54.3475 84.3997 54.5805C84.3997 54.6562 84.3968 54.7319 84.3939 54.8077C84.1347 55.0028 84.0822 55.3523 84.0473 55.5912C83.9715 56.1126 83.6337 56.4446 83.3948 56.8495C83.223 57.1437 82.8851 57.2456 82.6987 57.5165C81.3647 58.2563 80.0598 58.0611 78.7433 57.4378C77.7763 56.9805 76.952 56.3339 76.0956 55.7106C75.082 54.9708 74.1208 54.164 73.113 53.4212C73.0548 53.3426 72.9558 53.3251 72.8829 53.2669C72.7286 53.2581 72.6412 53.1591 72.5742 53.0338C72.5043 52.8562 72.3353 52.8474 72.1868 52.8037C71.4907 52.2212 70.7042 51.7668 69.9732 51.2338C69.3207 50.759 68.5343 50.4678 67.9081 49.9668C67.3838 49.5474 66.7721 49.2998 66.2187 48.9532C65.7847 48.6823 65.3216 48.3939 64.8206 48.193C64.2177 47.9512 63.673 47.5522 63.0788 47.2696C62.4817 46.9842 61.8934 46.6813 61.305 46.3783C60.0817 45.7463 58.7972 45.2511 57.5564 44.6569C56.6505 44.223 55.6689 43.9492 54.7223 43.6055C54.5301 43.489 54.3291 43.4016 54.1048 43.3724C53.8456 43.3084 53.5893 43.2472 53.3504 43.1132C52.9281 42.8802 52.73 42.4258 52.9165 41.9802C53.1174 41.5054 53.3825 41.0627 53.7174 40.6666C53.8136 40.6112 53.8922 40.5326 53.9475 40.4335C53.9738 40.4073 54 40.3811 54.0262 40.3549C54.1573 40.2792 54.2563 40.1772 54.3349 40.0462L54.3408 40.052Z" fill="#01408D"/>
<path d="M79.9988 63.0071C80.4183 63.6858 81.0969 64.1285 81.5717 64.7606C82.0581 65.4072 82.6377 65.9839 83.0921 66.6509C83.2756 66.9189 83.5931 67.1315 83.6077 67.5363C83.6135 67.7024 83.8931 67.8014 83.9718 68.0082C84.365 69.0043 84.8863 69.9568 84.9999 71.0403C85.1077 72.0452 84.9795 73.0326 84.6679 73.9967C84.4523 74.6637 84.0853 75.2521 83.73 75.8492C83.6834 75.9278 83.6251 75.9948 83.6426 76.0938C83.6106 76.1375 83.5756 76.1812 83.5436 76.2249C83.1766 76.5948 82.8475 76.9997 82.5038 77.39C82.0669 77.8851 81.6066 78.3716 81.0911 78.7793C80.2785 79.4259 79.425 80.023 78.6182 80.6842C78.3852 80.8765 78.1027 80.9988 77.8638 81.2056C77.3017 81.6949 77.2697 82.6008 77.4823 82.9299C78.1202 83.9086 78.6852 84.1474 79.5357 83.8008C80.4066 83.4775 81.0765 82.8396 81.8134 82.3095C82.8242 81.5813 83.7591 80.7541 84.6271 79.8599C85.064 79.4114 85.4543 78.9162 85.7922 78.3832C86.1534 78.0337 86.433 77.6172 86.6573 77.1744C86.8553 76.7841 87.1233 76.4433 87.3417 76.0705C87.5864 75.421 87.8748 74.786 88.0553 74.119C88.1515 73.7637 88.2505 73.3879 88.2709 73.0093C88.2767 72.8957 88.2359 72.7617 88.3233 72.6772C88.4107 72.5899 88.3699 72.3918 88.5388 72.3976C88.6757 72.4005 88.7689 72.5258 88.833 72.6277C89.1913 73.1986 89.5612 73.7666 89.8787 74.3608C90.2777 75.1122 90.5282 75.922 90.7525 76.7434C90.9797 77.5851 90.8573 78.4269 90.8923 79.2687C90.9214 79.9735 90.7117 80.6522 90.5428 81.3163C90.4175 81.8085 90.2777 82.3241 90.0447 82.7959C89.934 82.9008 89.9457 83.0552 89.8903 83.1833C89.7156 83.5474 89.4651 83.8707 89.3661 84.2756C89.3224 84.4532 89.0835 84.529 89.0398 84.727C88.6 85.5426 87.9447 86.1921 87.3476 86.8795C87.0068 87.2698 86.5145 87.5553 86.165 87.9281C85.7543 88.365 85.2737 88.6562 84.799 88.965C84.1669 89.3757 83.5086 89.7485 82.7834 89.9815C81.7348 90.4476 80.6309 90.6893 79.4949 90.8379C78.2716 90.9981 77.0599 90.8961 75.8541 90.7388C75.1929 90.6514 74.555 90.4301 73.9142 90.2291C73.4103 90.0689 72.9647 89.833 72.5307 89.5271C72.1084 89.23 71.8171 88.8339 71.5113 88.4436C70.8501 87.6019 70.2093 86.7455 69.5772 85.8805C69.3005 85.5018 69.0675 85.0882 68.7995 84.7096C68.4733 84.2523 68.1413 83.795 67.8879 83.3027C67.3985 82.3532 66.6879 81.5406 66.2772 80.5357C66.1228 80.1599 65.9072 79.7463 65.5577 79.4638C65.5694 79.1347 65.2169 78.992 65.1645 78.6949C65.0538 78.4473 65.1296 78.3482 65.4063 78.3453C65.9946 78.3366 66.5859 78.3978 67.1743 78.3104C68.2199 78.2987 69.1665 77.9288 70.1073 77.5152C70.8268 77.1977 71.386 76.6705 71.9307 76.1433C72.4521 75.6365 72.8686 75.0365 73.2443 74.4016C73.5676 73.8511 73.8909 73.2918 74.089 72.7005C74.2725 72.1442 74.5667 71.5966 74.5259 70.9762C74.6016 70.4636 74.7531 69.9684 74.788 69.4383C74.8579 68.3723 74.8579 67.315 74.7677 66.2489C74.6599 64.9674 74.3977 63.7178 74.1356 62.4624C74.0249 61.9294 73.5618 61.5304 73.0113 61.4547C72.554 61.3906 72.1142 61.4314 71.7035 61.6527C71.3773 61.8304 71.1705 62.0896 71.153 62.477C71.0307 62.9547 71.1093 63.4295 71.2229 63.8867C71.6161 65.4858 71.7501 67.114 71.6423 68.748C71.5608 69.9888 71.2986 71.2122 70.6928 72.3277C70.6608 72.386 70.6753 72.453 70.6666 72.517C70.2821 73.0705 69.9209 73.6297 69.4054 74.087C68.7588 74.6637 68.0015 74.9579 67.1801 75.1356C66.5801 75.2142 65.9917 75.22 65.3888 75.0744C64.2849 74.8064 63.4926 74.1685 62.9101 73.2132C62.4411 72.4471 62.1644 71.6083 61.8528 70.7811C61.4013 69.5665 60.9469 68.3519 60.5304 67.1257C60.2246 66.2256 59.8867 65.3373 59.4935 64.478C59.1964 63.8285 58.9401 63.1586 58.576 62.5382C58.2207 61.9294 57.8799 61.3119 57.5129 60.7119C57.14 60.1003 56.7439 59.5002 56.3216 58.9177C55.6429 57.9827 54.9235 57.0798 54.1487 56.2235C54.1196 56.2002 54.0934 56.1739 54.0701 56.1448C53.9594 55.9875 53.8574 55.8215 53.6827 55.7225C53.6536 55.7021 53.6332 55.6759 53.6157 55.6438C53.5545 55.5302 53.438 55.4866 53.339 55.4254C53.2633 55.3497 53.1875 55.271 53.1118 55.1953C52.8176 54.7904 52.5118 54.3914 52.0283 54.1904C52.0021 54.1671 51.9788 54.1438 51.9525 54.1205C51.6496 53.5787 51.0758 53.3603 50.604 53.0282C49.937 52.5593 49.2234 52.1574 48.5418 51.7088C47.9826 51.3389 47.8457 50.7942 48.1515 50.2058C48.3699 49.7864 48.6583 49.4019 48.8418 48.968C48.9962 48.601 49.034 48.1874 49.1651 47.8058C49.3573 47.232 49.5816 46.6465 50.0564 46.2883C50.4933 45.9621 51.07 45.9038 51.6322 46.032C52.2118 46.166 52.7885 46.3087 53.3623 46.4718C53.9361 46.632 54.5128 46.7922 55.0458 47.031C56.1381 47.5174 57.1808 48.0942 58.1012 48.8864C58.4275 49.1689 58.8323 49.3728 59.1032 49.7165C59.5605 50.2961 60.1984 50.6923 60.612 51.3272C60.81 51.6302 61.1304 51.8836 61.3489 52.1952C61.9955 53.1185 62.7208 53.9865 63.1315 55.07C63.2538 55.3963 63.4664 55.7458 63.6936 56.0487C63.6994 56.471 63.9587 56.8118 64.0635 57.205C64.1917 57.6798 64.4218 58.1284 64.3431 58.6439C64.3373 58.6905 64.3519 58.7488 64.3781 58.7895C64.8062 59.4362 64.7043 60.1876 64.7655 60.8954C64.8296 61.609 64.7859 62.3343 64.7771 63.0566C64.7713 63.4964 64.7888 63.9508 64.9548 64.3411C65.1063 64.6965 65.3538 65.0373 65.8315 65.1276C66.6179 65.2761 67.2908 65.1188 67.7539 64.4547C68.0248 64.0644 68.083 63.5634 68.0947 63.0974C68.1209 61.9294 68.1529 60.7585 68.0219 59.5934C67.8821 58.3614 67.5617 57.1672 67.183 55.9875C67.0374 55.5361 66.8772 55.0933 66.7199 54.6477C66.6063 54.3215 66.7403 53.8409 67.0345 53.6719C67.3432 53.4972 67.6519 53.5846 67.9403 53.7622C68.4762 54.0972 69.0326 54.4001 69.5365 54.7788C70.0054 55.1341 70.4714 55.4924 70.9608 55.8215C71.7181 56.3341 72.4928 56.8351 73.189 57.4206C73.9201 58.0381 74.6715 58.6323 75.4288 59.2148C75.9502 59.6167 76.4512 60.0478 76.9813 60.4439C77.6745 60.9566 78.3794 61.4983 78.9503 62.1333C79.2765 62.4974 79.6959 62.6751 80.0105 63.01L79.9988 63.0071Z" fill="#01408D"/>
<path d="M54.1079 86.1134C54.0322 86.1396 53.9565 86.1658 53.8778 86.1921C53.5749 86.1804 53.2924 86.2853 53.0157 86.3697C52.4331 86.5474 51.8419 86.5853 51.2418 86.6231C51.0613 86.6348 50.8981 86.7542 50.6972 86.7309C49.7098 86.6231 48.7515 86.4542 47.8223 86.0464C46.9718 85.6736 46.4097 84.9862 45.7456 84.4095C45.6204 84.2988 45.5971 84.0949 45.4922 83.9435C44.7058 82.8133 44.2543 81.5463 43.9689 80.2036C43.8757 79.7667 43.7329 79.3356 43.631 78.8929C43.5057 78.3482 43.4679 77.7977 43.4562 77.2559C43.4213 75.4035 43.4329 73.5481 43.4504 71.6927C43.4533 71.2878 43.4912 70.883 43.4446 70.4752C43.3921 70.0266 43.6164 69.616 43.6106 69.1587C43.6019 68.381 43.6106 67.5829 43.7737 66.8256C43.9834 65.8615 43.998 64.8828 44.1727 63.9158C44.3999 62.6605 44.5922 61.3963 44.8747 60.1497C44.9038 60.0216 44.8747 59.9254 44.8223 59.8206C44.8776 59.5672 44.93 59.3167 44.9854 59.0662C45.233 58.6759 45.2388 58.2099 45.3582 57.7846C45.5446 57.106 45.7543 56.4331 45.9437 55.7545C46.0456 55.3904 46.2815 55.0933 46.5058 54.7962C46.6747 54.569 46.9194 54.5195 47.1612 54.6214C48.0117 54.9884 48.7894 55.4632 49.4942 56.0749C49.9195 56.4448 50.3826 56.7652 50.8079 57.1409C51.7137 57.9448 52.4943 58.8507 53.2283 59.8089C53.9681 60.7701 54.6031 61.7983 55.2206 62.8381C56.0827 64.3323 56.7352 65.9168 57.2857 67.5479C57.4692 68.0926 57.6468 68.6431 57.8012 69.1994C58.0925 70.2538 58.0401 71.3053 57.7371 72.348C57.5391 72.6888 57.4313 73.085 57.1371 73.3704C56.6391 74.0607 55.9051 74.4248 55.1681 74.786C54.8274 74.9549 54.4487 75.0132 54.0905 75.0423C53.0506 75.1297 52.0079 75.0918 51.0292 74.6695C50.8457 74.5908 50.5894 74.684 50.4729 74.4452C49.5816 73.9151 48.4515 73.6355 47.7757 74.2326C47.4786 74.4947 47.266 74.7976 47.2981 75.217C47.0913 75.7209 47.3126 76.1258 47.5689 76.5423C47.7612 76.854 48.0961 76.9472 48.367 77.1161C49.5321 77.8414 50.8312 78.22 52.1914 78.2579C53.5778 78.2958 54.9846 78.2987 56.2924 77.7074C56.6245 77.5589 56.9973 77.4831 57.2769 77.2268C57.7779 77.1161 58.0779 76.6967 58.4799 76.4316C58.7333 76.2656 58.9896 76.0996 59.2343 75.919C59.8051 75.4996 60.2595 75.82 60.5916 76.5045C61.0663 77.4744 61.477 78.4734 61.9489 79.4463C62.3013 80.1745 62.6916 80.8851 63.0936 81.5871C63.4373 82.1813 63.8072 82.7638 64.1567 83.3522C64.9111 84.6105 65.8315 85.7493 66.5917 86.996C67.0723 87.7853 67.6869 88.4785 68.1267 89.3028C68.351 89.7193 68.7151 90.1038 68.9656 90.5261C69.586 91.5631 70.2326 92.6145 70.1685 93.8932C70.1132 94.9738 69.6763 95.8797 68.7704 96.5234C68.6073 96.6399 68.4675 96.7913 68.316 96.9253C68.1238 96.937 67.9228 96.9166 67.7772 97.0855C67.6665 97.0768 67.5675 97.1117 67.4713 97.1671C67.2645 97.1991 67.0432 97.0943 66.8509 97.2428C66.0616 97.4729 65.2228 97.2952 64.4276 97.5312C64.148 97.6127 63.8217 97.5545 63.5188 97.5545C62.3741 97.5545 61.2295 97.5982 60.0906 97.5399C59.3449 97.502 58.5964 97.4088 57.8536 97.2719C57.0381 97.1205 56.24 96.8875 55.4186 96.7855C55.2002 96.669 54.9759 96.5642 54.7225 96.5525C54.5507 96.5525 54.3817 96.5467 54.2594 96.3981C54.1196 96.3049 53.9477 96.302 53.7963 96.2438C53.2662 95.9904 52.7477 95.7049 52.1739 95.5476C51.804 95.1865 51.3292 95.0204 50.8574 94.8544C50.4787 94.7204 50.1962 94.4321 49.8554 94.2369C49.8525 94.1554 49.8292 94.0796 49.7564 94.0388C48.9437 93.5816 48.2622 92.9408 47.5806 92.3291C46.9893 91.799 46.3864 91.2427 45.9291 90.5727C45.7369 90.2931 45.7718 89.9436 45.9378 89.696C46.1272 89.4135 46.4476 89.2358 46.8233 89.3582C47.2806 89.5096 47.7874 89.4747 48.2156 89.7485C48.3175 89.8125 48.4631 89.83 48.5884 89.8271C49.6311 89.8067 50.668 89.9989 51.7079 89.897C52.3924 89.8329 53.0885 89.7834 53.7497 89.5708C53.9448 89.5067 54.1691 89.6057 54.338 89.4455C55.107 89.3582 55.8119 89.0552 56.5342 88.8106C56.7993 88.7203 57.108 88.6882 57.3352 88.5717C57.9876 88.2309 58.8265 88.097 59.1207 87.2698C59.342 86.6464 59.2372 86.0202 58.844 85.5251C58.4682 85.0503 57.8653 85.0532 57.3119 85.1522C56.4177 85.3095 55.5934 85.7115 54.7254 85.9678C54.5244 86.0435 54.2885 85.9707 54.105 86.1222L54.1079 86.1134Z" fill="#01408D"/>
<path d="M36.1077 86.5677C36.0029 86.4366 35.9039 86.2939 35.7204 86.259C35.6359 85.7813 35.1903 85.6153 34.8815 85.359C34.5116 85.0531 34.197 84.6978 33.8941 84.3453C33.696 84.1123 33.431 83.9317 33.2883 83.6609C32.8281 82.7987 32.0329 82.187 31.5727 81.3103C31.3542 80.8938 31.0076 80.5268 30.8037 80.087C30.2591 78.9103 29.5571 77.8151 29.1785 76.5481C28.9921 75.9248 28.6979 75.3131 28.5464 74.6752C28.4212 74.1451 28.2639 73.6237 28.1823 73.0761C28.0949 72.4907 27.958 71.9023 27.8415 71.3169C27.527 69.7615 27.4512 68.2003 27.5765 66.6187C27.6202 66.0886 27.7163 65.5643 27.7076 65.0255C27.7017 64.7138 27.9901 64.5041 28.2435 64.3323C28.4416 64.1954 28.6629 64.1866 28.8581 64.3177C29.0911 64.475 29.359 64.6293 29.5018 64.8565C29.895 65.4711 30.5125 65.8352 31.063 66.2517C31.5232 66.6041 32.1232 66.7818 32.6737 67.0032C33.1921 67.21 33.7164 67.4168 34.2553 67.5391C34.5757 67.6119 34.966 67.5945 35.2631 67.4721C35.5631 67.3469 35.6738 66.9595 35.8281 66.6711C35.9738 66.4003 36.1281 66.1265 36.1077 65.774C36.0699 65.0313 35.7495 64.5711 35.0446 64.3177C34.3514 64.0672 33.6378 63.8575 32.9999 63.4701C32.8834 63.4002 32.7582 63.3944 32.6271 63.3856C32.6242 63.2487 32.5863 63.1177 32.4581 63.0594C31.6717 62.6895 31.3339 61.3526 31.497 60.5865C31.73 59.4797 32.0853 58.4108 32.6562 57.4496C33.1805 56.5699 33.9087 55.8301 34.7271 55.1951C35.467 54.6213 36.2942 54.1786 37.1884 53.9485C37.9457 53.7534 38.6797 53.4301 39.4806 53.4242C39.5389 53.4242 39.5942 53.3776 39.6496 53.3514C40.5001 53.3514 41.3477 53.3485 42.1982 53.3485C42.3001 53.3485 42.4166 53.3281 42.504 53.366C43.1099 53.6252 43.2293 53.599 43.072 54.3097C42.8594 55.2563 42.5739 56.1855 42.3147 57.1175C42.1691 57.636 42.0496 58.1486 41.9623 58.6758C41.6564 59.5321 41.5341 60.4292 41.3477 61.3147C41.2457 61.8011 41.0914 62.2817 41.1147 62.7885C41.1205 62.9138 41.0768 63.0128 40.9894 63.1002C40.9224 63.1643 40.8787 63.2429 40.8904 63.3419C40.9778 64.0876 40.771 64.8041 40.6778 65.5323C40.602 66.141 40.5583 66.7527 40.4972 67.3614C40.4011 68.3255 40.2787 69.2896 40.2146 70.2567C40.1622 71.0256 40.0311 71.7858 39.8535 72.5227C39.6758 73.2626 39.6612 74.1014 39.0263 74.6781C38.9243 74.7305 38.8486 74.8063 38.7962 74.9082C38.7437 74.9607 38.6913 75.0102 38.6418 75.0626C38.5398 75.1179 38.4175 75.1325 38.333 75.2199C37.8088 75.5257 37.2437 75.5082 36.6699 75.4267C36.5301 75.4063 36.3932 75.3859 36.2534 75.3684C36.1718 75.2024 35.9621 75.2082 35.8602 75.0684C35.2339 74.6082 34.6165 74.1364 34.2203 73.4519C33.8329 72.782 33.4834 72.0887 33.1019 71.413C32.6154 70.5508 32.0445 70.2596 31.2173 70.5042C30.5241 70.711 29.9387 71.4509 30.0348 72.246C30.1367 73.0791 30.5358 73.7694 30.9028 74.4655C31.4329 75.4704 32.1465 76.3529 33.0232 77.0986C33.6145 77.6025 34.2844 77.9578 34.9631 78.3132C35.0883 78.3772 35.2019 78.3947 35.3301 78.3802H35.3242C35.499 78.5404 35.7204 78.5229 35.9301 78.5491C36.9087 78.7209 37.8845 78.7384 38.8544 78.4763C39.0117 78.4326 39.1835 78.4617 39.3379 78.3918C39.3612 78.386 39.3874 78.386 39.4107 78.3918C39.734 78.5433 40.1244 78.6219 40.1477 79.0909C40.4389 80.987 40.5583 82.8977 40.6923 84.8085C40.7418 85.49 40.7564 86.1658 40.6399 86.8357C40.5671 87.2522 40.4331 87.6571 40.0282 87.893C39.6438 88.1959 39.0467 88.1668 38.5748 87.9775C38.1321 87.7998 37.7243 87.5376 37.2554 87.4241C37.1126 87.3046 37.0631 87.0512 36.7951 87.1095C36.6932 86.757 36.4311 86.6172 36.0932 86.5735L36.1077 86.5677Z" fill="#E80629"/>
<path d="M58.2174 31.6317C57.8563 31.8211 57.5767 32.1152 57.2621 32.3628C56.7087 32.7968 56.3096 33.3939 55.6892 33.7522C55.497 33.8628 55.3397 34.0405 55.162 34.1862C54.6756 34.5823 54.1455 34.6056 53.6125 34.3784C52.8639 34.0609 52.1969 33.5716 51.4687 33.2133C50.793 32.8813 50.2512 32.3803 49.692 31.9113C49.0833 31.3987 48.623 30.7579 48.623 29.8958C48.623 29.7094 48.6493 29.5229 48.7599 29.386C48.9638 29.1356 49.0279 28.8414 49.092 28.5414C49.3891 28.2821 49.7095 28.0753 50.0677 27.8947C50.3619 27.7462 50.5629 27.4025 50.9182 27.2831C51.294 27.1578 51.6289 26.8899 51.9959 26.8025C53.0154 26.5578 53.9241 26.0044 54.9611 25.8297C55.1038 25.7335 55.2815 25.853 55.4242 25.7539C55.6805 25.7015 55.9397 25.6491 56.196 25.5995C56.3388 25.5063 56.5164 25.6199 56.6621 25.5267C56.7902 25.5267 56.9184 25.5267 57.0465 25.5267C57.131 25.5267 57.2126 25.5093 57.2766 25.451C57.4747 25.3491 57.699 25.4772 57.8941 25.3753C58.1009 25.3753 58.3048 25.3753 58.5116 25.3753C58.6922 25.4394 58.8728 25.4394 59.0534 25.3753C59.0796 25.3753 59.1058 25.3753 59.1291 25.3753C59.3388 25.3054 59.5544 25.2966 59.7757 25.2966C60.9059 25.2966 62.036 25.3025 63.1661 25.2995C63.271 25.2995 63.3729 25.2995 63.4574 25.3753C63.871 25.3199 64.2438 25.4627 64.6166 25.6083C64.6865 25.7015 64.6225 25.8617 64.771 25.917C64.937 26.2403 64.7826 26.5025 64.6166 26.7646C64.5147 26.82 64.3923 26.8345 64.3079 26.919C64.0224 27.1841 63.6088 27.2773 63.3787 27.6122C63.2477 27.685 63.0758 27.6909 62.9943 27.8452C62.703 27.9443 62.5399 28.2093 62.3069 28.3812C62.2807 28.4016 62.2515 28.419 62.2224 28.4336C62.1146 28.4715 62.0098 28.5122 61.9486 28.62C61.6195 28.9957 61.1884 29.2491 60.7923 29.5433C59.9738 30.1492 59.1728 30.7725 58.433 31.4744C58.3602 31.5269 58.2874 31.5793 58.2145 31.6317H58.2174Z" fill="#E80629"/>
<path d="M68.4094 28.9258C68.9395 28.9258 69.4172 28.6811 69.9298 28.5879C70.9288 28.4073 71.925 28.5034 72.924 28.4568C73.8794 28.4131 74.8202 28.5762 75.7319 28.8005C76.7193 29.0423 77.7038 29.3452 78.6446 29.7413C78.7552 29.7879 78.8339 29.7704 78.93 29.7646C79.131 29.7879 79.297 29.884 79.4601 29.9947C79.7077 30.3937 80.1825 30.4433 80.5407 30.6705C81.3446 31.1802 82.1747 31.6346 82.932 32.2287C83.5 32.6744 84.1146 33.0792 84.633 33.5744C85.2535 34.1686 85.9379 34.69 86.5088 35.3453C86.803 35.6832 87.1787 35.989 87.4991 36.3182C88.0555 36.889 88.6671 37.425 89.0749 38.1269C89.171 38.293 89.1069 38.4794 89.1215 38.6571C88.9438 38.8726 88.7429 39.0561 88.5011 39.1959C88.3205 39.327 88.1865 39.1784 88.038 39.1173C86.7943 38.5609 85.5214 38.092 84.1845 37.8095C83.9486 37.7599 83.7301 37.6201 83.4767 37.6522C83.4272 37.6522 83.3748 37.6522 83.3253 37.6493C83.2146 37.5269 83.0689 37.591 82.9379 37.5735C82.2184 37.3551 81.4757 37.2182 80.733 37.1192C78.1465 36.7725 75.5396 36.7259 72.9386 36.8221C71.7182 36.8657 70.5007 36.8541 69.2803 36.8803C68.0598 36.9065 66.8423 36.7929 65.6248 36.7784C65.118 36.7725 64.5996 36.6415 64.0811 36.6473C63.7724 36.5104 63.4287 36.5133 63.1112 36.5075C62.3859 36.4929 61.6956 36.2774 60.9849 36.2366C60.4927 36.2075 60.1053 35.9279 59.6422 35.8376C59.1791 35.7473 59.048 35.2638 59.4004 34.9638C60.1898 34.288 60.8655 33.4958 61.6956 32.8521C62.051 32.5754 62.4034 32.252 62.7762 31.9841C63.5015 31.4656 64.1714 30.8685 64.9986 30.4928C65.4792 30.2743 65.8986 29.9306 66.3996 29.7413C66.8278 29.5782 67.2006 29.217 67.7191 29.3714C67.8647 29.0889 68.322 29.284 68.4152 28.9199L68.4094 28.9258Z" fill="#01408D"/>
<path d="M48.7133 41.6483C48.1395 41.5376 47.6094 41.4473 47.0881 41.325C46.7007 41.2347 46.3104 41.1677 45.9172 41.1385C45.521 41.1094 45.2035 40.8618 44.787 40.8444C44.1783 40.8182 43.5783 40.5793 42.9695 40.5327C42.2909 40.4803 41.6471 40.2677 40.9539 40.2618C40.1384 40.256 39.3228 40.1016 38.5364 39.8832C37.881 39.7026 37.2257 39.5045 36.6577 39.0647C36.3344 38.8171 36.0198 38.5987 35.8159 38.2375C35.615 37.8851 35.5422 37.5122 35.6557 37.1336C35.8247 36.5685 36.0752 36.0472 36.483 35.5986C36.8266 35.2229 37.1267 34.8093 37.4849 34.4394C38.2772 33.6238 39.1685 32.9335 40.083 32.2723C40.8578 31.7131 41.6472 31.1742 42.454 30.6645C42.7511 30.4752 43.0977 30.3674 43.4122 30.1897C43.686 30.0354 43.9394 30.347 44.1666 30.5189C44.4987 30.7723 44.6356 31.1772 44.8802 31.4975C45.3725 32.1471 45.8647 32.785 46.424 33.385C46.9512 33.9471 47.5541 34.4015 48.1424 34.8734C48.8065 35.4035 49.5551 35.8287 50.2367 36.3384C50.6707 36.6617 51.1571 36.9355 51.46 37.422C51.5765 37.6084 51.6085 37.8035 51.5357 37.9695C51.3377 38.421 51.1658 38.8812 50.8483 39.2803C50.4697 39.7579 50.2105 40.3259 49.8056 40.7861C49.5347 41.0949 49.2959 41.4386 48.8852 41.5842C48.8153 41.6104 48.7425 41.6366 48.7162 41.6483H48.7133Z" fill="#E80629"/>
<path d="M29.9967 54.8136C29.5365 54.965 29.3763 55.4281 29.0617 55.7311C28.7559 56.0252 28.4967 56.3719 28.185 56.6631C28.0947 56.7476 28.0569 56.8495 28.0598 56.969C27.6404 57.0855 27.5209 57.4962 27.2908 57.7874C27.1336 57.9855 27.0025 58.2418 26.819 58.3845C26.3763 58.7311 25.9481 58.6845 25.683 58.0321C25.5986 57.8253 25.6219 57.5952 25.6393 57.3593C25.7122 56.4388 25.8636 55.5301 25.9889 54.6213C26.0821 53.9514 26.2481 53.2931 26.4112 52.6349C26.7054 51.4494 27.0491 50.2785 27.4394 49.1163C27.6229 48.5717 27.9637 48.1144 28.0976 47.5464C28.2258 47.0046 28.9685 46.8241 29.522 47.1299C29.9792 47.3833 30.4249 47.66 30.8851 47.9105C31.2375 48.1027 31.657 48.1726 32.0269 48.2076C32.7987 48.2804 33.591 48.3328 34.3687 48.1435C35.0998 47.9629 35.4522 47.0134 35.4056 46.4017C35.3415 45.5687 34.7764 45.2396 34.0949 45.0007C33.5356 45.0328 33.0521 44.8143 32.589 44.5347C32.3764 44.4065 32.2599 44.2172 32.3298 43.9871C32.4055 43.7395 32.5133 43.4949 32.8075 43.3987C33.2589 43.2531 33.7221 43.1774 34.191 43.1482C35.1493 43.0842 36.1075 42.9851 37.0629 43.0055C37.9921 43.0259 38.9154 43.189 39.8445 43.2648C40.6717 43.3317 41.4756 43.5589 42.3057 43.6201C42.8941 43.6638 43.4766 43.8356 44.0592 43.9521C44.6213 44.0657 45.1806 44.1852 45.7427 44.2988C45.9466 44.3395 46.1447 44.392 46.3136 44.5114C46.9136 44.9366 46.9806 45.4085 46.5437 46.1745C46.4476 46.3406 46.3369 46.4978 46.299 46.693C45.7049 47.4153 45.434 48.2979 45.0874 49.1426C44.6767 50.1445 43.9514 50.2902 43.0252 50.197C41.7378 50.0659 40.462 50.0105 39.1688 50.197C38.4319 50.3047 37.695 50.3921 36.9988 50.6397C36.1017 50.9543 35.1609 51.1581 34.3483 51.697C34.2143 51.7873 34.0395 51.8106 33.891 51.8805C32.8599 52.3698 31.9628 53.0601 31.0948 53.7854C30.7948 54.0359 30.4948 54.2922 30.1802 54.5252C30.0812 54.598 30.0492 54.7116 29.9909 54.8107L29.9967 54.8136Z" fill="#E80629"/>
<path d="M17.8782 22.1782L19.2015 20.9331C20.3122 19.8882 21.4588 19.9232 22.5038 21.0339L23.2374 21.8137C23.3486 21.9319 23.3562 22.0583 23.2262 22.1806L22.0328 23.3034C21.9147 23.4145 21.7771 23.4103 21.6659 23.2922L21.199 22.7959C20.91 22.4887 20.6008 22.4678 20.2818 22.7679L19.6319 23.3793C19.3365 23.6572 19.3149 23.9894 19.6039 24.2966L20.5488 25.301L24.2753 23.5325C24.5429 23.4144 24.7826 23.4561 24.9938 23.6806L27.0837 25.902C28.1286 27.0127 28.0936 28.1593 26.9829 29.2042L25.6596 30.4493C24.5607 31.4831 23.4023 31.4592 22.3573 30.3485L21.6348 29.5805C21.5125 29.4505 21.5278 29.3247 21.646 29.2136L22.8394 28.0908C22.9693 27.9685 23.084 27.972 23.2063 28.102L23.6732 28.5983C23.9733 28.9173 24.2951 28.9042 24.5905 28.6263L25.2285 28.026C25.5357 27.737 25.5566 27.4277 25.2565 27.1087L24.1337 25.9153L20.4309 27.6616C20.1515 27.7908 19.9117 27.749 19.7005 27.5245L17.7774 25.4804C16.7325 24.3697 16.7793 23.212 17.8782 22.1782Z" fill="#161616"/>
<path d="M32.038 24.7099L26.4889 15.4014C26.4058 15.2621 26.4395 15.1286 26.5789 15.0456L29.9232 13.0518C31.2331 12.271 32.3452 12.5524 33.1261 13.8622L34.7543 16.5934C35.5268 17.8894 35.2455 19.0015 33.9439 19.7963L32.1964 20.8569L33.8579 23.6439C33.9409 23.7832 33.9211 23.9084 33.7678 23.9997L32.3939 24.7999C32.2546 24.883 32.1211 24.8492 32.038 24.7099ZM31.1248 19.0593L32.51 18.2147C32.8862 17.9904 32.9428 17.6734 32.7351 17.325L31.5222 15.2905C31.3062 14.9282 31.0088 14.8411 30.6326 15.0654L29.2474 15.9101L31.1248 19.0593Z" fill="#161616"/>
<path d="M40.9895 17.5364L38.8853 11.1924C38.4052 9.74493 38.9197 8.71966 40.3672 8.23958L42.0918 7.66757C43.5392 7.18749 44.5645 7.70203 45.0445 9.14946L47.1487 15.4935C47.6288 16.9409 47.1143 17.9662 45.6668 18.4463L43.9422 19.0183C42.4948 19.4984 41.4695 18.9838 40.9895 17.5364ZM43.6838 16.8991L44.6692 16.5723C45.0696 16.4395 45.2188 16.1678 45.0809 15.752L43.2321 10.1779C43.0993 9.77757 42.8122 9.6335 42.4118 9.76629L41.4264 10.0932C41.026 10.2259 40.8819 10.513 41.0147 10.9134L42.8635 16.4875C43.0014 16.9032 43.2834 17.0319 43.6838 16.8991Z" fill="#161616"/>
<path d="M57.6992 7.11767L58.0343 10.3612C58.131 11.2972 57.8927 11.9905 57.334 12.4233L58.5315 15.8061C58.5999 15.9948 58.5131 16.1016 58.3356 16.1199L56.7542 16.2833C56.5928 16.3 56.5038 16.2276 56.4565 16.0857L55.3535 12.9867L53.9173 13.1351L54.2424 16.2818C54.2591 16.4432 54.1722 16.55 54.0109 16.5667L52.4294 16.7301C52.268 16.7467 52.1612 16.6599 52.1446 16.4986L51.0309 5.71894C51.0143 5.55757 51.1011 5.45075 51.2625 5.43408L55.1354 5.03398C56.6523 4.87728 57.5425 5.60078 57.6992 7.11767ZM53.7022 11.0534L55.316 10.8867C55.7355 10.8434 55.9381 10.5941 55.8948 10.1745L55.643 7.73782C55.5997 7.31825 55.3504 7.11567 54.9309 7.15902L53.3172 7.32572L53.7022 11.0534Z" fill="#161616"/>
<path d="M70.1321 5.45362C70.3095 5.47297 70.3796 5.57853 70.362 5.73981L70.186 7.35254C70.1685 7.51382 70.0773 7.60178 69.8999 7.58243L68.0291 7.37835L67.0579 16.2806C67.0386 16.458 66.9492 16.5299 66.7718 16.5105L65.0945 16.3276C64.9332 16.31 64.8453 16.2188 64.8646 16.0414L65.8358 7.13908L63.965 6.935C63.8037 6.9174 63.7175 6.81008 63.7351 6.64881L63.911 5.03608C63.9286 4.8748 64.036 4.78859 64.1972 4.80619L70.1321 5.45362Z" fill="#161616"/>
<path d="M78.993 7.57312L80.7176 8.14513C82.1651 8.62521 82.6796 9.65048 82.1995 11.0979L81.8624 12.1142C81.8114 12.2682 81.7037 12.335 81.5344 12.2788L79.9792 11.763C79.8252 11.7119 79.7634 11.5889 79.8145 11.4349L80.029 10.7882C80.1618 10.3878 80.0331 10.1059 79.6174 9.96798L78.7705 9.68709C78.3855 9.55941 78.083 9.69837 77.9503 10.0987L77.5161 11.4076L80.8441 13.8446C81.0752 14.0238 81.1525 14.2545 81.0555 14.5471L80.0953 17.4419C79.6153 18.8894 78.59 19.4039 77.1426 18.9238L75.418 18.3518C73.9859 17.8768 73.456 16.8465 73.9361 15.399L74.2681 14.3982C74.3242 14.2288 74.4422 14.1824 74.5961 14.2335L76.1514 14.7493C76.3207 14.8055 76.3722 14.908 76.316 15.0774L76.1015 15.7241C75.9636 16.1399 76.1282 16.4167 76.5131 16.5444L77.3446 16.8202C77.745 16.9529 78.027 16.8243 78.1649 16.4085L78.6807 14.8533L75.3835 12.4265C75.137 12.2422 75.0597 12.0115 75.1567 11.7189L76.0403 9.05501C76.5204 7.60759 77.561 7.09815 78.993 7.57312Z" fill="#161616"/>
<path d="M83.5005 21.233L89.8804 10.5311C89.9634 10.3917 90.083 10.3496 90.2362 10.441L93.5806 12.4347C94.8904 13.2156 95.1635 14.3416 94.3826 15.6515L90.1377 22.7722C89.3568 24.082 88.2447 24.3634 86.9348 23.5825L83.5905 21.5888C83.4372 21.4974 83.4091 21.3862 83.5005 21.233ZM86.3592 20.7463L87.6412 21.5106C88.0035 21.7265 88.3066 21.6617 88.5309 21.2855L92.3107 14.9451C92.5349 14.5689 92.4562 14.2575 92.0939 14.0415L90.8119 13.2773L86.3592 20.7463Z" fill="#161616"/>
<path d="M103.062 19.5454L104.385 20.7904C105.496 21.8354 105.531 22.982 104.486 24.0927L103.307 25.3451C103.196 25.4633 103.071 25.4786 102.941 25.3563L101.712 24.2002C101.594 24.0891 101.589 23.9515 101.701 23.8333L102.568 22.9117C102.857 22.6045 102.859 22.2945 102.54 21.9944L101.972 21.4608C101.677 21.1829 101.344 21.1816 101.055 21.4888L99.5211 23.1194L101.466 26.6867C101.589 26.9584 101.573 27.1884 101.362 27.4129L98.7943 30.1424C97.7493 31.2531 96.6027 31.288 95.492 30.2431L94.1686 28.9981C93.0698 27.9643 93.023 26.8066 94.0679 25.6959L95.2351 24.4552C95.3574 24.3252 95.4839 24.3328 95.602 24.444L96.8309 25.6001C96.9609 25.7224 96.9644 25.837 96.8421 25.967L95.9861 26.8768C95.686 27.1959 95.7187 27.5162 96.0141 27.7941L96.5813 28.3277C96.8885 28.6167 97.1984 28.6187 97.4985 28.2997L98.977 26.7282L97.0437 23.172C96.8977 22.901 96.9248 22.6592 97.136 22.4347L99.7595 19.6461C100.804 18.5355 101.963 18.5116 103.062 19.5454Z" fill="#161616"/>
<path d="M3.41966 46.6605L11.6078 48.0558C11.7144 48.074 11.7693 48.1382 11.7493 48.2555L11.3133 50.8142C11.1425 51.8164 10.5079 52.2569 9.50572 52.0861L4.05761 51.1577C3.05542 50.9869 2.61318 50.363 2.78396 49.3608L3.22 46.802C3.23999 46.6847 3.30238 46.6405 3.41966 46.6605ZM4.40932 48.3212L4.24217 49.3021C4.19493 49.5793 4.3081 49.7522 4.59596 49.8012L9.44702 50.6279C9.73488 50.6769 9.90958 50.5531 9.95682 50.2759L10.124 49.295L4.40932 48.3212Z" fill="#161616"/>
<path d="M2.01565 60.4505L2.03002 59.3042C2.03124 59.2068 2.08599 59.1534 2.18359 59.133L3.7663 58.85L3.79044 56.925L2.21518 56.6132C2.11812 56.5904 2.06473 56.5356 2.06595 56.4383L2.08046 55.2812C2.08195 55.1622 2.14751 55.1089 2.26607 55.1429L10.5599 57.0424C10.6678 57.0653 10.7102 57.1308 10.709 57.2281L10.6902 58.7313C10.6889 58.8286 10.6449 58.893 10.5365 58.9133L2.19759 60.6042C2.07836 60.6243 2.01402 60.5803 2.01565 60.4505ZM5.02417 58.5954L8.80711 57.9506L5.04153 57.2111L5.02417 58.5954Z" fill="#161616"/>
<path d="M10.9011 63.8353L11.4711 67.7743C11.4881 67.8921 11.4316 67.9549 11.3246 67.9704L10.2542 68.1253C10.1472 68.1408 10.0752 68.0966 10.0582 67.9788L9.87848 66.7372L2.89957 67.7471C2.78183 67.7641 2.72056 67.7183 2.70353 67.6006L2.54243 66.4874C2.52694 66.3804 2.57117 66.3084 2.68891 66.2914L9.66782 65.2814L9.48814 64.0398C9.47266 63.9328 9.52758 63.8592 9.63462 63.8437L10.705 63.6889C10.812 63.6734 10.8856 63.7283 10.9011 63.8353Z" fill="#161616"/>
<path d="M5.41838 78.6468L5.07963 77.5516C5.05087 77.4586 5.08655 77.391 5.17315 77.3415L6.5922 76.5857L6.02335 74.7465L4.42853 74.9341C4.32915 74.9422 4.26151 74.9065 4.23275 74.8135L3.8908 73.7079C3.85565 73.5943 3.90166 73.5234 4.02491 73.5193L12.501 72.7769C12.6107 72.7656 12.6713 72.8148 12.7 72.9078L13.1442 74.344C13.173 74.437 13.1508 74.5118 13.0539 74.5644L5.63877 78.7372C5.53151 78.793 5.45673 78.7708 5.41838 78.6468ZM7.71087 75.9566L11.1123 74.18L7.30181 74.6341L7.71087 75.9566Z" fill="#161616"/>
<path d="M10.1276 88.4093L17.1634 83.9945C17.255 83.937 17.3445 83.9575 17.402 84.0491L18.7816 86.2478C19.322 87.109 19.1513 87.8544 18.2902 88.3948L16.0548 89.7974C15.2029 90.332 14.4482 90.1671 13.9079 89.306L13.218 88.2066L10.9094 89.6552C10.8178 89.7127 10.7341 89.7014 10.6709 89.6006L10.073 88.6479C10.0156 88.5563 10.036 88.4668 10.1276 88.4093ZM14.4273 87.4478L14.9332 88.254C15.0884 88.5014 15.3005 88.5342 15.5296 88.3905L17.2519 87.3098C17.4901 87.1604 17.5436 86.9608 17.3884 86.7134L16.8825 85.9073L14.4273 87.4478Z" fill="#161616"/>
<path d="M16.0364 94.6569L20.2494 91.0634C21.0229 90.4036 21.7853 90.4641 22.4451 91.2376L23.2311 92.1592C23.8909 92.9327 23.8304 93.695 23.0569 94.3548L18.8439 97.9484C18.0704 98.6081 17.308 98.5476 16.6483 97.7742L15.8622 96.8526C15.2024 96.0791 15.2629 95.3167 16.0364 94.6569ZM17.1272 96.1858L17.5343 96.663C17.7168 96.877 17.922 96.9009 18.1442 96.7114L21.9458 93.4688C22.1597 93.2863 22.1767 93.0728 21.9942 92.8589L21.5871 92.3816C21.4046 92.1677 21.1912 92.1508 20.9772 92.3332L17.1756 95.5759C16.9534 95.7654 16.9447 95.9718 17.1272 96.1858Z" fill="#161616"/>
<path d="M30.775 99.2576L31.5656 99.9137C31.6738 100.004 31.6768 100.118 31.5787 100.22L25.6137 105.951C25.5156 106.052 25.4159 106.054 25.3077 105.964L24.492 105.287C24.3922 105.204 24.3754 105.106 24.4333 104.985L26.6897 100.505L22.6869 103.55C22.586 103.621 22.4863 103.623 22.3864 103.54L21.5542 102.849C21.446 102.759 21.4292 102.661 21.5106 102.546L26.0774 95.6543C26.1589 95.5392 26.2724 95.5209 26.3806 95.6107L27.1713 96.2669C27.2711 96.3498 27.2894 96.4633 27.2148 96.57L24.3069 100.734L24.3486 100.769L28.4118 97.5494C28.5197 97.4703 28.6194 97.4687 28.7193 97.5516L29.2186 97.966C29.3185 98.0489 29.3353 98.1471 29.2774 98.2677L26.8537 102.848L26.8953 102.882L30.4689 99.2707C30.5602 99.1777 30.6751 99.1747 30.775 99.2576Z" fill="#161616"/>
<path d="M37.9842 104.012L37.446 104.95C37.3922 105.044 37.317 105.088 37.2045 105.023L34.8591 103.678L33.7828 105.554L35.5746 106.582C35.6684 106.636 35.6924 106.724 35.6332 106.828L35.1004 107.756C35.0412 107.86 34.9527 107.884 34.8588 107.83L33.067 106.802L31.9799 108.697L34.3252 110.042C34.4378 110.107 34.4484 110.175 34.3892 110.278L33.851 111.217C33.7972 111.31 33.7274 111.345 33.6148 111.281L30.1625 109.3C30.0781 109.252 30.0541 109.163 30.1079 109.069L34.2411 101.864C34.2949 101.771 34.3835 101.747 34.4679 101.795L37.9202 103.776C38.0328 103.84 38.038 103.918 37.9842 104.012Z" fill="#161616"/>
<path d="M44.4035 108.259L43.4497 110.72C43.1878 111.395 42.7637 111.741 42.1976 111.766L41.8692 114.677C41.8526 114.81 41.7686 114.847 41.6577 114.804L40.6089 114.398C40.5081 114.358 40.4772 114.289 40.4922 114.19L40.8095 111.367L40.1136 111.097L39.1286 113.638C39.0895 113.739 39.0055 113.776 38.9047 113.737L37.8559 113.33C37.7551 113.291 37.718 113.207 37.7571 113.107L40.7592 105.362C40.7983 105.261 40.8822 105.224 40.9831 105.263L43.5142 106.244C44.4621 106.612 44.7709 107.311 44.4035 108.259ZM40.6296 109.766L41.628 110.153C41.8901 110.254 42.086 110.168 42.1877 109.906L42.9226 108.01C43.0242 107.748 42.9377 107.552 42.6755 107.45L41.6772 107.063L40.6296 109.766Z" fill="#161616"/>
<path d="M52.5146 108.949L52.2799 110.005C52.2565 110.111 52.1978 110.175 52.0711 110.147L49.4317 109.56L48.9623 111.672L50.9788 112.12C51.0844 112.143 51.1336 112.221 51.1078 112.337L50.8755 113.382C50.8496 113.498 50.7722 113.548 50.6666 113.524L48.6501 113.076L48.176 115.208L50.8154 115.795C50.9421 115.823 50.9726 115.886 50.9468 116.002L50.7121 117.057C50.6886 117.163 50.6323 117.217 50.5056 117.189L46.6204 116.325C46.5254 116.304 46.4761 116.227 46.4996 116.121L48.3021 108.013C48.3256 107.907 48.403 107.858 48.4981 107.879L52.3833 108.743C52.5099 108.771 52.5381 108.844 52.5146 108.949Z" fill="#161616"/>
<path d="M54.9962 117.687L55.6013 109.403C55.6092 109.295 55.6678 109.235 55.7865 109.243L58.3753 109.432C59.3892 109.507 59.8884 110.096 59.8143 111.11L59.4117 116.622C59.3376 117.636 58.7589 118.136 57.7449 118.062L55.1561 117.873C55.0375 117.864 54.9875 117.806 54.9962 117.687ZM56.5545 116.543L57.5469 116.616C57.8274 116.636 57.9886 116.507 58.0099 116.216L58.3684 111.308C58.3897 111.017 58.2497 110.855 57.9692 110.834L56.9769 110.762L56.5545 116.543Z" fill="#161616"/>
<path d="M69.7794 117.457L68.3162 109.281C68.2972 109.174 68.3496 109.099 68.4561 109.08L71.0112 108.623C72.0119 108.443 72.6395 108.88 72.8186 109.881L73.2834 112.479C73.4606 113.469 73.0255 114.107 72.0247 114.286L70.7472 114.515L71.2273 117.198C71.2464 117.304 71.2046 117.378 71.0875 117.399L69.9802 117.597C69.8738 117.616 69.7985 117.563 69.7794 117.457ZM70.4957 113.11L71.4326 112.942C71.72 112.891 71.8298 112.706 71.7822 112.44L71.424 110.438C71.3745 110.162 71.2094 110.037 70.922 110.089L69.9851 110.256L70.4957 113.11Z" fill="#161616"/>
<path d="M79.6789 106.38L80.0222 107.406C80.0565 107.508 80.0395 107.594 79.9164 107.635L77.3523 108.493L78.0387 110.544L79.9977 109.889C80.1003 109.854 80.1824 109.895 80.2201 110.008L80.5599 111.023C80.5977 111.136 80.5567 111.218 80.4542 111.253L78.4952 111.908L79.1885 113.98L81.7526 113.122C81.8756 113.081 81.9338 113.118 81.9716 113.231L82.3148 114.257C82.3491 114.359 82.3287 114.435 82.2056 114.476L78.4313 115.739C78.339 115.77 78.2568 115.729 78.2225 115.626L75.5867 107.749C75.5523 107.647 75.5933 107.565 75.6856 107.534L79.4599 106.271C79.583 106.23 79.6446 106.277 79.6789 106.38Z" fill="#161616"/>
<path d="M87.119 104.407L88.3235 106.755C88.6542 107.4 88.6308 107.947 88.2726 108.386L90.2299 110.567C90.318 110.667 90.2898 110.755 90.184 110.809L89.1832 111.322C89.0869 111.372 89.0141 111.348 88.9505 111.272L87.0519 109.158L86.3879 109.499L87.6318 111.924C87.6812 112.02 87.6531 112.107 87.5569 112.157L86.556 112.67C86.4598 112.719 86.3725 112.691 86.3231 112.595L82.5321 105.204C82.4827 105.108 82.5108 105.021 82.607 104.972L85.0225 103.733C85.927 103.269 86.655 103.503 87.119 104.407ZM85.7363 108.228L86.689 107.74C86.9392 107.611 87.0048 107.408 86.8765 107.157L85.9485 105.348C85.8201 105.098 85.6163 105.032 85.3661 105.161L84.4134 105.649L85.7363 108.228Z" fill="#161616"/>
<path d="M93.0346 98.7993L93.6674 99.6764C93.7307 99.7641 93.716 99.8547 93.6283 99.918L91.4531 101.487L92.7251 103.25L94.374 102.061C94.4617 101.997 94.5523 102.012 94.6156 102.1L95.2484 102.977C95.318 103.073 95.297 103.155 95.2093 103.218L93.5604 104.408L95.579 107.206C95.6423 107.294 95.6276 107.384 95.5399 107.447L94.6277 108.106C94.5313 108.175 94.4494 108.154 94.3862 108.067L89.5262 101.331C89.4629 101.243 89.4688 101.159 89.5653 101.089L92.793 98.7602C92.8807 98.6969 92.9713 98.7116 93.0346 98.7993Z" fill="#161616"/>
<path d="M100.239 101.767L96.3812 97.7944C95.6729 97.0651 95.684 96.3004 96.4133 95.5921L97.2822 94.7481C98.0115 94.0398 98.7761 94.0509 99.4845 94.7802L103.343 98.7524C104.051 99.4817 104.04 100.246 103.311 100.955L102.442 101.799C101.712 102.507 100.948 102.496 100.239 101.767ZM101.695 100.579L102.145 100.142C102.346 99.9463 102.357 99.74 102.153 99.5305L98.6721 95.9462C98.4761 95.7445 98.262 95.7414 98.0603 95.9373L97.6103 96.3744C97.4086 96.5703 97.4055 96.7844 97.6014 96.9861L101.083 100.57C101.286 100.78 101.493 100.775 101.695 100.579Z" fill="#161616"/>
<path d="M104.364 88.7949L106.466 90.3897C107.044 90.8276 107.259 91.3306 107.127 91.8815L109.835 92.9993C109.958 93.0519 109.971 93.1428 109.899 93.2376L109.219 94.1338C109.154 94.22 109.078 94.2304 108.987 94.1888L106.361 93.106L105.91 93.7005L108.081 95.3476C108.167 95.413 108.18 95.5039 108.114 95.5901L107.435 96.4862C107.369 96.5724 107.278 96.5849 107.192 96.5195L100.574 91.4999C100.488 91.4345 100.476 91.3436 100.541 91.2574L102.182 89.0946C102.796 88.2846 103.554 88.1805 104.364 88.7949ZM104.772 92.8378L105.419 91.9847C105.589 91.7607 105.56 91.5485 105.336 91.3786L103.716 90.1498C103.492 89.9799 103.28 90.009 103.11 90.2331L102.463 91.0861L104.772 92.8378Z" fill="#161616"/>
<path d="M107.108 81.034L107.764 79.7658C107.828 79.6409 107.93 79.6084 108.055 79.6729L115.357 83.447C115.482 83.5116 115.515 83.6136 115.45 83.7385L114.988 84.6321C114.924 84.757 114.822 84.7895 114.697 84.7249L110.373 82.4902L110.339 82.5575L114.19 85.7533C114.29 85.8417 114.313 85.9387 114.253 86.054L114.01 86.5248C113.95 86.6401 113.858 86.6776 113.728 86.6468L108.894 85.3534L108.859 85.4206L113.182 87.6553C113.307 87.7199 113.34 87.8219 113.275 87.9468L112.818 88.8307C112.754 88.9556 112.652 88.9881 112.527 88.9235L105.225 85.1494C105.1 85.0849 105.067 84.9828 105.132 84.8579L105.787 83.5897C105.847 83.4744 105.939 83.4369 106.07 83.4677L111.406 84.8743L107.172 81.3348C107.072 81.2464 107.049 81.1493 107.108 81.034Z" fill="#161616"/>
<path d="M118.969 73.9672L118.63 75.0625C118.601 75.1555 118.534 75.1911 118.434 75.183L116.836 75.0058L116.267 76.8449L117.69 77.5905C117.776 77.6399 117.812 77.7076 117.783 77.8006L117.441 78.9061C117.406 79.0198 117.328 79.0523 117.224 78.9861L109.809 74.8134C109.712 74.7608 109.69 74.686 109.719 74.593L110.163 73.1568C110.191 73.0638 110.252 73.0146 110.362 73.0259L118.838 73.7683C118.958 73.7827 119.007 73.8432 118.969 73.9672ZM115.558 74.8934L111.747 74.4393L115.149 76.2159L115.558 74.8934Z" fill="#161616"/>
<path d="M111.878 64.9086L112.034 63.7946C112.049 63.6875 112.122 63.6321 112.229 63.6471L120.456 64.7938C120.563 64.8088 120.618 64.882 120.603 64.9891L120.455 66.0496C120.442 66.146 120.39 66.2043 120.289 66.223L115.487 67.2243L115.479 67.2779L120.021 67.911C120.128 67.9259 120.185 67.9884 120.169 68.1063L120.013 69.2203C119.998 69.3274 119.925 69.3827 119.818 69.3678L111.591 68.221C111.484 68.2061 111.429 68.1328 111.444 68.0257L111.592 66.9653C111.605 66.8689 111.657 66.8106 111.758 66.7919L116.537 65.7983L116.546 65.734L112.026 65.1039C111.919 65.0889 111.862 65.0264 111.878 64.9086Z" fill="#161616"/>
<path d="M113.762 55.9449L114.93 55.9241C115.038 55.9222 115.104 55.9859 115.106 56.0941L115.125 57.1755C115.128 57.2944 115.064 57.3496 114.956 57.3515L114.09 57.3669C113.809 57.3719 113.661 57.526 113.666 57.8071L113.676 58.3694C113.681 58.6614 113.835 58.7993 114.116 58.7943L119.047 58.7068C119.339 58.7016 119.477 58.5477 119.472 58.2666L119.462 57.7043C119.457 57.4231 119.313 57.2742 119.021 57.2794L118.156 57.2947C118.048 57.2967 117.982 57.2437 117.98 57.1248L117.961 56.0434C117.959 55.9353 118.023 55.8693 118.131 55.8673L119.299 55.8466C120.315 55.8286 120.866 56.3705 120.884 57.3761L120.905 58.5873C120.923 59.6037 120.392 60.1648 119.376 60.1829L113.839 60.2811C112.823 60.2992 112.272 59.7573 112.254 58.7408L112.233 57.5297C112.215 56.524 112.746 55.9629 113.762 55.9449Z" fill="#161616"/>
<path d="M111.334 48.0663L112.4 47.8846C112.507 47.8665 112.588 47.8964 112.61 48.0243L113.064 50.6897L115.197 50.3264L114.85 48.29C114.832 48.1834 114.885 48.1085 115.002 48.0885L116.057 47.9087C116.175 47.8887 116.25 47.9417 116.268 48.0484L116.615 50.0847L118.768 49.7177L118.314 47.0523C118.292 46.9244 118.338 46.8727 118.456 46.8527L119.522 46.671C119.629 46.6528 119.7 46.6846 119.722 46.8125L120.39 50.736C120.406 50.8319 120.353 50.9068 120.247 50.925L112.059 52.3203C111.952 52.3385 111.877 52.2854 111.861 52.1895L111.192 48.266C111.17 48.138 111.227 48.0845 111.334 48.0663Z" fill="#161616"/>
<g clip-path="url(#clip0_1816_17058)">
<path d="M14.7868 35.5026C14.7353 35.3445 14.595 35.2325 14.4297 35.2175L12.1749 35.0128L11.2838 32.9265C11.218 32.7732 11.0683 32.6743 10.9016 32.6743C10.735 32.6743 10.5853 32.7732 10.5199 32.9265L9.62876 35.0128L7.37357 35.2175C7.20826 35.2328 7.06827 35.3448 7.01654 35.5026C6.96511 35.6608 7.01261 35.8343 7.13764 35.9439L8.84211 37.4385L8.33955 39.652C8.30278 39.8147 8.36595 39.983 8.50099 40.0806C8.57357 40.1334 8.65885 40.1597 8.74443 40.1597C8.81797 40.1597 8.89157 40.1402 8.95731 40.1008L10.9016 38.9383L12.8456 40.1008C12.9882 40.1861 13.1676 40.1783 13.3023 40.0806C13.4373 39.983 13.5005 39.8147 13.4637 39.652L12.9612 37.4385L14.6657 35.9439C14.7906 35.8343 14.8382 35.6612 14.7868 35.5026Z" fill="#E80629"/>
</g>
<g clip-path="url(#clip1_1816_17058)">
<path d="M114.528 35.5026C114.477 35.3445 114.337 35.2325 114.171 35.2175L111.917 35.0128L111.025 32.9265C110.96 32.7732 110.81 32.6743 110.643 32.6743C110.477 32.6743 110.327 32.7732 110.262 32.9265L109.37 35.0128L107.115 35.2175C106.95 35.2328 106.81 35.3448 106.758 35.5026C106.707 35.6608 106.754 35.8343 106.879 35.9439L108.584 37.4385L108.081 39.652C108.044 39.8147 108.108 39.983 108.243 40.0806C108.315 40.1334 108.401 40.1597 108.486 40.1597C108.56 40.1597 108.633 40.1402 108.699 40.1008L110.643 38.9383L112.587 40.1008C112.73 40.1861 112.909 40.1783 113.044 40.0806C113.179 39.983 113.242 39.8147 113.205 39.652L112.703 37.4385L114.407 35.9439C114.532 35.8343 114.58 35.6612 114.528 35.5026Z" fill="#01408D"/>
</g>
<defs>
<clipPath id="clip0_1816_17058">
<rect width="7.81108" height="7.81108" fill="white" transform="translate(6.99609 32.5066)"/>
</clipPath>
<clipPath id="clip1_1816_17058">
<rect width="7.81108" height="7.81108" fill="white" transform="translate(106.738 32.5066)"/>
</clipPath>
</defs>
</svg>
