<svg width="64" height="64" viewBox="0 0 64 64" fill="none" xmlns="http://www.w3.org/2000/svg">
<path d="M63.1139 29.3948C62.3196 29.6599 61.4706 29.8056 60.5872 29.8056C56.1801 29.8056 52.6075 26.2329 52.6075 21.8258C52.6075 21.7683 52.6106 21.7116 52.6118 21.6544C51.3322 22.5278 49.7856 23.0393 48.1193 23.0393C43.7122 23.0393 40.1395 19.4665 40.1395 15.0595C40.1395 13.3141 40.7016 11.7007 41.6522 10.3871C37.8804 9.75217 35.006 6.47279 35.006 2.52039C35.006 1.78239 35.1082 1.06857 35.2958 0.39034C34.1379 0.260965 32.9617 0.1922 31.7694 0.1922C14.4147 0.1922 0.345886 14.261 0.345886 31.6157C0.345886 48.9704 14.4147 63.0392 31.7694 63.0392C49.1241 63.0392 63.1929 48.9704 63.1929 31.6157C63.193 30.8687 63.1652 30.1284 63.1139 29.3948ZM14.3333 32.1153C12.9384 32.1153 11.8077 30.9846 11.8077 29.5897C11.8077 28.1949 12.9384 27.0641 14.3333 27.0641C15.7282 27.0641 16.8589 28.1949 16.8589 29.5897C16.8589 30.9846 15.7282 32.1153 14.3333 32.1153ZM22.1558 47.6512C20.761 47.6512 19.6302 46.5204 19.6302 45.1255C19.6302 43.7307 20.761 42.5999 22.1558 42.5999C23.5507 42.5999 24.6815 43.7307 24.6815 45.1255C24.6815 46.5204 23.5507 47.6512 22.1558 47.6512ZM27.2072 16.243C25.8124 16.243 24.6816 15.1122 24.6816 13.7174C24.6816 12.3225 25.8124 11.1917 27.2072 11.1917C28.6021 11.1917 29.7329 12.3225 29.7329 13.7174C29.7329 15.1122 28.6021 16.243 27.2072 16.243ZM31.7695 32.1153C30.3747 32.1153 29.2439 30.9846 29.2439 29.5897C29.2439 28.1949 30.3747 27.0641 31.7695 27.0641C33.1644 27.0641 34.2952 28.1949 34.2952 29.5897C34.2953 30.9846 33.1644 32.1153 31.7695 32.1153ZM43.7917 45.1255C42.3968 45.1255 41.2661 43.9948 41.2661 42.5999C41.2661 41.2051 42.3968 40.0743 43.7917 40.0743C45.1866 40.0743 46.3173 41.2051 46.3173 42.5999C46.3173 43.9948 45.1866 45.1255 43.7917 45.1255Z" fill="white"/>
</svg>
