<svg width="319" height="519" viewBox="0 0 319 519" fill="none" xmlns="http://www.w3.org/2000/svg">
<path d="M146.992 68.6408C147.037 68.5958 147.082 68.5507 147.127 68.5057C147.312 68.3857 147.472 68.2356 147.657 68.1055C147.742 67.9654 147.827 67.8254 147.907 67.6903V67.6953C148.548 67.4502 149.083 67.0049 149.688 66.6948C150.284 66.3896 150.879 66.1695 151.514 66.2745C152.22 66.3896 152.95 66.3696 153.64 66.6647C154.161 66.8849 154.766 66.7948 155.336 66.8899C158.528 67.4201 161.715 67.9805 164.911 68.4807C166.212 68.6858 167.508 68.951 168.813 69.111C170.874 69.6313 172.931 70.1816 174.862 71.1021C175.042 71.1872 175.242 71.2072 175.422 71.2872C176.177 71.5824 176.873 71.9976 177.538 72.4578C177.943 73.0081 178.584 73.2533 179.104 73.6535C180.75 74.9391 182.15 76.4349 183.276 78.1959C184.417 79.9818 185.112 81.9279 185.512 84.009C185.717 85.0695 185.752 86.1451 185.942 87.2007C186.103 88.0961 187.038 88.9816 187.944 89.0216C188.799 89.0567 189.674 89.1617 190.37 88.4763C190.995 88.1111 191.135 87.5058 191.195 86.8455C191.345 85.1846 190.83 83.6088 190.5 82.0229C190.13 80.242 189.564 78.496 188.719 76.8652C187.994 75.4694 187.173 74.1387 186.103 72.9781C184.997 71.7775 183.891 70.5868 182.721 69.4512C182.225 68.971 182.245 68.7509 182.731 68.4507C185.972 68.3757 189.189 68.6408 192.396 69.036C192.481 69.041 192.566 69.046 192.651 69.051C194.062 69.4362 195.518 69.5963 196.928 69.9815C197.479 70.1316 197.994 70.3867 198.564 70.4518C198.779 70.6419 199.039 70.7169 199.31 70.7669C199.435 70.812 199.56 70.862 199.685 70.907C201.186 71.4023 202.646 71.9826 204.027 72.753C205.118 73.3633 206.188 74.0036 207.229 74.699C207.624 75.0442 208.019 75.3844 208.444 75.6895C208.489 75.7296 208.534 75.7746 208.579 75.8146C208.645 76.3949 209.27 76.51 209.55 76.9502C209.74 77.2504 210.095 77.5455 210.335 77.8707C211.131 78.9663 211.956 80.0719 212.412 81.3526C212.677 82.098 213.002 82.8233 213.162 83.6288C213.372 84.6993 213.632 85.7649 213.782 86.8455C213.962 88.1612 213.887 89.4719 213.802 90.7976C213.702 92.3284 213.247 93.7592 212.852 95.2199C212.382 96.9759 211.596 98.5967 210.796 100.218C210.395 101.028 209.805 101.738 209.575 102.639C209.52 102.859 209.515 103.074 209.5 103.289C209.4 103.734 209.39 104.18 209.505 104.625C210.07 106.406 212.111 107.036 213.612 106.041C214.593 105.39 215.018 104.31 215.718 103.444C216.764 102.149 217.264 100.538 218.015 99.072C218.195 98.7218 218.335 98.3466 218.535 98.0114C218.885 97.4311 219.465 97.4061 220.051 97.4661C220.586 97.5162 220.861 97.9114 221.006 98.3566C221.126 98.7268 221.176 99.132 221.176 99.5272C221.191 101.508 221.286 103.494 221.156 105.465C221.011 107.582 220.831 109.718 220.116 111.749C220.016 112.024 219.971 112.304 219.991 112.594C219.665 113.405 219.435 114.245 219.17 115.07C218.745 116.406 218.235 117.717 217.424 118.873C217.204 119.183 217.344 119.563 217.149 119.863C216.794 120.408 216.484 120.984 216.103 121.509C215.643 122.144 214.983 122.539 214.273 122.825C213.592 123.095 212.977 122.91 212.331 122.554C211.756 122.239 211.286 121.784 210.711 121.484C210.646 120.794 209.99 120.533 209.635 120.063C208.86 119.038 208.014 118.062 207.119 117.142C206.513 116.521 206.018 115.806 205.413 115.181C205.033 114.79 204.637 114.37 204.302 113.93C203.587 112.994 202.661 112.264 201.946 111.328C200.745 109.768 199.285 108.452 197.854 107.121C197.424 106.721 197.293 106.136 196.843 105.761C196.688 105.63 196.803 105.41 196.903 105.215C197.298 104.465 197.834 103.84 198.549 103.384C199.365 102.864 199.745 101.969 200.385 101.293C201.401 100.228 201.971 98.8569 202.646 97.5612C203.342 96.2305 203.702 94.7897 204.162 93.379C204.307 92.9387 204.377 92.4785 204.332 92.0082C204.512 91.7181 204.292 91.3679 204.462 91.0777C204.462 91.0327 204.462 90.9927 204.462 90.9477C204.737 89.5019 204.727 88.0511 204.597 86.5953C204.582 86.4403 204.552 86.2952 204.467 86.1601C204.427 84.3892 203.987 82.7183 203.277 81.0924C202.941 80.332 202.631 79.5616 202.206 78.8462C201.241 77.2104 199.295 76.8552 197.884 78.1158C196.888 79.0063 196.933 80.1519 197.258 81.3376C197.629 82.6883 198.014 84.034 198.364 85.3947C198.954 87.7109 198.889 90.0472 198.879 92.3934C198.744 92.7836 198.719 93.1939 198.619 93.5941C198.619 93.7241 198.614 93.8542 198.609 93.9843C198.164 94.3195 198.074 94.9198 198.014 95.33C197.884 96.2255 197.303 96.7958 196.893 97.4911C196.598 97.9964 196.018 98.1715 195.698 98.6368C193.406 99.9074 191.165 99.5722 188.904 98.5017C187.243 97.7163 185.827 96.6057 184.357 95.5351C182.616 94.2644 180.965 92.8787 179.234 91.603C179.134 91.4679 178.964 91.4379 178.839 91.3379C178.574 91.3229 178.423 91.1528 178.308 90.9377C178.188 90.6325 177.898 90.6175 177.643 90.5424C176.447 89.5419 175.097 88.7615 173.841 87.846C172.72 87.0306 171.37 86.5303 170.294 85.6699C169.394 84.9495 168.343 84.5242 167.393 83.9289C166.647 83.4637 165.852 82.9684 164.991 82.6232C163.956 82.208 163.02 81.5226 162 81.0374C160.974 80.5471 159.964 80.0269 158.953 79.5066C156.852 78.421 154.646 77.5705 152.515 76.55C150.959 75.8046 149.273 75.3344 147.647 74.744C147.317 74.5439 146.972 74.3939 146.587 74.3438C146.141 74.2338 145.701 74.1287 145.291 73.8986C144.565 73.4984 144.225 72.718 144.545 71.9526C144.891 71.1371 145.346 70.3767 145.921 69.6964C146.086 69.6013 146.221 69.4662 146.316 69.2961C146.361 69.2511 146.406 69.2061 146.451 69.1611C146.677 69.031 146.847 68.8559 146.982 68.6308L146.992 68.6408Z" fill="#01408D"/>
<path d="M191.06 108.067C191.78 109.232 192.946 109.993 193.761 111.078C194.597 112.189 195.592 113.18 196.373 114.325C196.688 114.785 197.233 115.151 197.258 115.846C197.268 116.131 197.749 116.301 197.884 116.656C198.559 118.367 199.455 120.003 199.65 121.864C199.835 123.59 199.615 125.286 199.079 126.942C198.709 128.087 198.079 129.098 197.468 130.124C197.388 130.259 197.288 130.374 197.318 130.544C197.263 130.619 197.203 130.694 197.148 130.769C196.518 131.404 195.953 132.1 195.362 132.77C194.612 133.62 193.821 134.456 192.936 135.156C191.54 136.267 190.075 137.292 188.689 138.428C188.289 138.758 187.803 138.968 187.393 139.323C186.428 140.164 186.373 141.72 186.738 142.285C187.833 143.966 188.804 144.376 190.265 143.781C191.76 143.225 192.911 142.13 194.177 141.219C195.913 139.969 197.518 138.548 199.009 137.012C199.76 136.242 200.43 135.391 201.01 134.476C201.631 133.876 202.111 133.16 202.496 132.4C202.836 131.729 203.297 131.144 203.672 130.504C204.092 129.388 204.587 128.298 204.897 127.152C205.062 126.542 205.233 125.896 205.268 125.246C205.278 125.051 205.208 124.821 205.358 124.676C205.508 124.526 205.438 124.185 205.728 124.195C205.963 124.2 206.123 124.416 206.233 124.591C206.848 125.571 207.484 126.547 208.029 127.567C208.714 128.858 209.145 130.249 209.53 131.659C209.92 133.105 209.71 134.551 209.77 135.997C209.82 137.207 209.46 138.373 209.17 139.514C208.955 140.359 208.714 141.244 208.314 142.055C208.124 142.235 208.144 142.5 208.049 142.72C207.749 143.346 207.319 143.901 207.149 144.596C207.074 144.901 206.663 145.031 206.588 145.372C205.833 146.772 204.707 147.888 203.682 149.069C203.096 149.739 202.251 150.229 201.651 150.87C200.945 151.62 200.12 152.12 199.304 152.651C198.219 153.356 197.088 153.996 195.843 154.396C194.042 155.197 192.146 155.612 190.195 155.867C188.093 156.142 186.012 155.967 183.941 155.697C182.806 155.547 181.71 155.167 180.609 154.822C179.744 154.547 178.979 154.141 178.233 153.616C177.508 153.106 177.008 152.425 176.482 151.755C175.347 150.309 174.246 148.838 173.161 147.353C172.685 146.702 172.285 145.992 171.825 145.342C171.264 144.556 170.694 143.771 170.259 142.925C169.419 141.294 168.198 139.899 167.493 138.173C167.227 137.527 166.857 136.817 166.257 136.332C166.277 135.767 165.672 135.521 165.581 135.011C165.391 134.586 165.521 134.416 165.997 134.411C167.007 134.396 168.023 134.501 169.033 134.351C170.829 134.331 172.455 133.695 174.071 132.985C175.307 132.44 176.267 131.534 177.203 130.629C178.098 129.758 178.814 128.728 179.459 127.637C180.014 126.692 180.569 125.731 180.91 124.716C181.225 123.76 181.73 122.82 181.66 121.754C181.79 120.874 182.05 120.023 182.11 119.113C182.23 117.282 182.23 115.466 182.075 113.635C181.89 111.434 181.44 109.287 180.99 107.131C180.8 106.216 180.004 105.53 179.059 105.4C178.273 105.29 177.518 105.36 176.812 105.741C176.252 106.046 175.897 106.491 175.867 107.156C175.657 107.977 175.792 108.792 175.987 109.578C176.662 112.324 176.892 115.121 176.707 117.927C176.567 120.058 176.117 122.159 175.077 124.075C175.021 124.175 175.047 124.29 175.032 124.401C174.371 125.351 173.751 126.312 172.865 127.097C171.755 128.087 170.454 128.593 169.043 128.898C168.013 129.033 167.002 129.043 165.967 128.793C164.071 128.333 162.71 127.237 161.709 125.596C160.904 124.28 160.429 122.84 159.893 121.419C159.118 119.333 158.338 117.247 157.622 115.141C157.097 113.595 156.517 112.069 155.841 110.593C155.331 109.478 154.891 108.327 154.265 107.261C153.655 106.216 153.07 105.155 152.439 104.125C151.799 103.074 151.119 102.044 150.393 101.043C149.228 99.4372 147.992 97.8864 146.661 96.4156C146.611 96.3756 146.566 96.3306 146.526 96.2806C146.336 96.0104 146.161 95.7253 145.861 95.5552C145.811 95.5202 145.776 95.4751 145.746 95.4201C145.641 95.225 145.441 95.15 145.271 95.0449C145.141 94.9148 145.011 94.7798 144.88 94.6497C144.375 93.9543 143.85 93.269 143.019 92.9238C142.974 92.8838 142.934 92.8437 142.889 92.8037C142.369 91.8732 141.384 91.498 140.573 90.9277C139.428 90.1223 138.202 89.4319 137.031 88.6615C136.071 88.0262 135.836 87.0907 136.361 86.0801C136.736 85.3598 137.231 84.6994 137.547 83.954C137.812 83.3237 137.877 82.6133 138.102 81.9579C138.432 80.9724 138.817 79.9669 139.633 79.3516C140.383 78.7913 141.374 78.6912 142.339 78.9113C143.335 79.1415 144.325 79.3866 145.311 79.6667C146.296 79.9419 147.287 80.217 148.202 80.6272C150.078 81.4627 151.869 82.4532 153.45 83.8139C154.01 84.2992 154.706 84.6494 155.171 85.2397C155.956 86.2352 157.052 86.9156 157.762 88.0062C158.103 88.5264 158.653 88.9617 159.028 89.497C160.139 91.0828 161.384 92.5736 162.09 94.4346C162.3 94.9949 162.665 95.5952 163.055 96.1155C163.065 96.8409 163.51 97.4262 163.69 98.1015C163.911 98.917 164.306 99.6874 164.171 100.573C164.161 100.653 164.186 100.753 164.231 100.823C164.966 101.934 164.791 103.224 164.896 104.44C165.006 105.666 164.931 106.911 164.916 108.152C164.906 108.907 164.936 109.688 165.221 110.358C165.481 110.968 165.907 111.554 166.727 111.709C168.078 111.964 169.233 111.694 170.029 110.553C170.494 109.883 170.594 109.022 170.614 108.222C170.659 106.216 170.714 104.205 170.489 102.204C170.249 100.088 169.699 98.0365 169.048 96.0104C168.798 95.235 168.523 94.4746 168.253 93.7092C168.058 93.1489 168.288 92.3235 168.793 92.0333C169.323 91.7331 169.854 91.8832 170.349 92.1884C171.27 92.7637 172.225 93.284 173.09 93.9343C173.896 94.5446 174.696 95.16 175.537 95.7253C176.837 96.6057 178.168 97.4662 179.364 98.4717C180.619 99.5323 181.91 100.553 183.211 101.553C184.106 102.244 184.967 102.984 185.877 103.664C187.068 104.545 188.279 105.475 189.259 106.566C189.819 107.191 190.54 107.497 191.08 108.072L191.06 108.067Z" fill="#01408D"/>
<path d="M146.592 147.753C146.462 147.798 146.332 147.843 146.196 147.888C145.676 147.868 145.191 148.048 144.716 148.193C143.715 148.498 142.7 148.563 141.669 148.628C141.359 148.648 141.079 148.853 140.734 148.813C139.038 148.628 137.392 148.338 135.796 147.638C134.335 146.997 133.37 145.817 132.229 144.826C132.014 144.636 131.974 144.286 131.794 144.026C130.443 142.085 129.668 139.909 129.177 137.602C129.017 136.852 128.772 136.112 128.597 135.351C128.382 134.416 128.317 133.47 128.297 132.54C128.237 129.358 128.257 126.171 128.287 122.985C128.292 122.289 128.357 121.594 128.277 120.893C128.187 120.123 128.572 119.418 128.562 118.632C128.547 117.297 128.562 115.926 128.842 114.625C129.202 112.969 129.227 111.288 129.528 109.627C129.918 107.471 130.248 105.3 130.733 103.159C130.783 102.939 130.733 102.774 130.643 102.594C130.738 102.159 130.828 101.728 130.923 101.298C131.349 100.628 131.359 99.8273 131.564 99.0969C131.884 97.9313 132.244 96.7757 132.569 95.61C132.744 94.9847 133.15 94.4744 133.535 93.9642C133.825 93.5739 134.245 93.4889 134.66 93.664C136.121 94.2943 137.457 95.1098 138.667 96.1603C139.398 96.7957 140.193 97.346 140.924 97.9913C142.479 99.372 143.82 100.928 145.081 102.574C146.352 104.225 147.442 105.991 148.503 107.776C149.983 110.343 151.104 113.064 152.05 115.866C152.365 116.801 152.67 117.747 152.935 118.702C153.435 120.513 153.345 122.319 152.825 124.11C152.485 124.695 152.3 125.376 151.794 125.866C150.939 127.052 149.678 127.677 148.413 128.297C147.827 128.588 147.177 128.688 146.562 128.738C144.776 128.888 142.985 128.823 141.304 128.097C140.989 127.962 140.548 128.122 140.348 127.712C138.818 126.802 136.876 126.321 135.716 127.347C135.206 127.797 134.84 128.317 134.895 129.038C134.54 129.903 134.92 130.599 135.361 131.314C135.691 131.849 136.266 132.009 136.731 132.3C138.732 133.545 140.964 134.196 143.3 134.261C145.681 134.326 148.097 134.331 150.344 133.315C150.914 133.06 151.554 132.93 152.035 132.49C152.895 132.3 153.41 131.579 154.101 131.124C154.536 130.839 154.976 130.554 155.396 130.243C156.377 129.523 157.157 130.073 157.728 131.249C158.543 132.915 159.248 134.631 160.059 136.302C160.664 137.552 161.334 138.773 162.025 139.979C162.615 140.999 163.251 142 163.851 143.01C165.147 145.171 166.727 147.127 168.033 149.269C168.858 150.624 169.914 151.815 170.669 153.231C171.055 153.946 171.68 154.606 172.11 155.332C173.176 157.113 174.286 158.919 174.176 161.115C174.081 162.971 173.331 164.527 171.775 165.632C171.495 165.832 171.255 166.092 170.995 166.323C170.664 166.343 170.319 166.308 170.069 166.598C169.879 166.583 169.709 166.643 169.544 166.738C169.189 166.793 168.808 166.613 168.478 166.868C167.123 167.263 165.682 166.958 164.316 167.363C163.836 167.503 163.276 167.403 162.755 167.403C160.789 167.403 158.823 167.478 156.867 167.378C155.586 167.313 154.301 167.153 153.025 166.918C151.624 166.658 150.254 166.258 148.843 166.082C148.468 165.882 148.082 165.702 147.647 165.682C147.352 165.682 147.062 165.672 146.852 165.417C146.612 165.257 146.317 165.252 146.056 165.152C145.146 164.717 144.255 164.227 143.27 163.956C142.635 163.336 141.819 163.051 141.009 162.766C140.358 162.536 139.873 162.04 139.288 161.705C139.283 161.565 139.243 161.435 139.118 161.365C137.722 160.58 136.551 159.479 135.381 158.428C134.365 157.518 133.33 156.562 132.544 155.412C132.214 154.932 132.274 154.331 132.559 153.906C132.884 153.421 133.435 153.116 134.08 153.326C134.865 153.586 135.736 153.526 136.471 153.996C136.646 154.106 136.896 154.136 137.112 154.131C138.903 154.096 140.684 154.426 142.469 154.251C143.645 154.141 144.841 154.056 145.976 153.691C146.312 153.581 146.697 153.751 146.987 153.476C148.308 153.326 149.518 152.805 150.759 152.385C151.214 152.23 151.744 152.175 152.135 151.975C153.255 151.39 154.696 151.16 155.201 149.739C155.581 148.668 155.401 147.593 154.726 146.742C154.081 145.927 153.045 145.932 152.095 146.102C150.559 146.372 149.143 147.062 147.652 147.503C147.307 147.633 146.902 147.508 146.587 147.768L146.592 147.753Z" fill="#01408D"/>
<path d="M115.675 148.533C115.495 148.308 115.325 148.063 115.01 148.003C114.865 147.183 114.1 146.897 113.569 146.457C112.934 145.932 112.394 145.322 111.873 144.716C111.533 144.316 111.078 144.006 110.833 143.541C110.042 142.06 108.677 141.009 107.886 139.504C107.511 138.788 106.916 138.158 106.566 137.402C105.63 135.381 104.425 133.5 103.774 131.324C103.454 130.254 102.949 129.203 102.689 128.107C102.473 127.197 102.203 126.302 102.063 125.361C101.913 124.355 101.678 123.345 101.478 122.339C100.938 119.668 100.808 116.987 101.023 114.27C101.098 113.36 101.263 112.459 101.248 111.534C101.238 110.998 101.733 110.638 102.168 110.343C102.508 110.108 102.889 110.093 103.224 110.318C103.624 110.588 104.084 110.853 104.329 111.244C105.005 112.299 106.065 112.924 107.011 113.64C107.801 114.245 108.832 114.55 109.777 114.93C110.668 115.286 111.568 115.641 112.494 115.851C113.044 115.976 113.714 115.946 114.225 115.736C114.74 115.521 114.93 114.855 115.195 114.36C115.445 113.895 115.711 113.425 115.675 112.819C115.61 111.544 115.06 110.753 113.85 110.318C112.659 109.888 111.433 109.528 110.338 108.862C110.138 108.742 109.922 108.732 109.697 108.717C109.692 108.482 109.627 108.257 109.407 108.157C108.056 107.522 107.476 105.225 107.756 103.91C108.156 102.009 108.767 100.173 109.747 98.5217C110.648 97.0109 111.898 95.7403 113.304 94.6497C114.575 93.6642 115.996 92.9038 117.531 92.5085C118.832 92.1734 120.093 91.6181 121.469 91.6081C121.569 91.6081 121.664 91.528 121.759 91.483C123.219 91.483 124.675 91.478 126.136 91.478C126.311 91.478 126.511 91.443 126.661 91.508C127.702 91.9533 127.907 91.9082 127.637 93.1289C127.272 94.7547 126.781 96.3506 126.336 97.9514C126.086 98.8419 125.881 99.7224 125.731 100.628C125.206 102.099 124.995 103.639 124.675 105.16C124.5 105.996 124.235 106.821 124.275 107.692C124.285 107.907 124.21 108.077 124.06 108.227C123.945 108.337 123.87 108.472 123.89 108.642C124.04 109.923 123.685 111.153 123.525 112.404C123.395 113.45 123.32 114.5 123.214 115.546C123.049 117.202 122.839 118.858 122.729 120.518C122.639 121.839 122.414 123.145 122.109 124.411C121.804 125.681 121.779 127.122 120.688 128.112C120.513 128.203 120.383 128.333 120.293 128.508C120.203 128.598 120.113 128.683 120.028 128.773C119.853 128.868 119.643 128.893 119.498 129.043C118.597 129.568 117.627 129.538 116.641 129.398C116.401 129.363 116.166 129.328 115.926 129.298C115.786 129.013 115.425 129.023 115.25 128.783C114.175 127.992 113.114 127.182 112.434 126.006C111.768 124.856 111.168 123.665 110.513 122.504C109.677 121.024 108.697 120.523 107.276 120.944C106.085 121.299 105.08 122.57 105.245 123.935C105.42 125.366 106.105 126.552 106.736 127.747C107.646 129.473 108.872 130.989 110.378 132.27C111.393 133.135 112.544 133.745 113.709 134.356C113.925 134.466 114.12 134.496 114.34 134.471H114.33C114.63 134.746 115.01 134.716 115.37 134.761C117.051 135.056 118.727 135.086 120.393 134.636C120.663 134.561 120.958 134.611 121.223 134.491C121.263 134.481 121.308 134.481 121.348 134.491C121.904 134.751 122.574 134.886 122.614 135.692C123.114 138.948 123.32 142.23 123.55 145.512C123.635 146.682 123.66 147.843 123.46 148.994C123.335 149.709 123.104 150.404 122.409 150.81C121.749 151.33 120.723 151.28 119.913 150.955C119.152 150.649 118.452 150.199 117.647 150.004C117.401 149.799 117.316 149.364 116.856 149.464C116.681 148.859 116.231 148.618 115.65 148.543L115.675 148.533Z" fill="#E80629"/>
<path d="M153.65 54.1783C153.03 54.5035 152.549 55.0088 152.009 55.434C151.059 56.1794 150.373 57.2049 149.308 57.8203C148.978 58.0104 148.707 58.3155 148.402 58.5657C147.567 59.246 146.656 59.2861 145.741 58.8959C144.455 58.3506 143.31 57.5101 142.059 56.8948C140.898 56.3245 139.968 55.464 139.007 54.6586C137.962 53.7781 137.171 52.6775 137.171 51.1968C137.171 50.8766 137.216 50.5564 137.406 50.3213C137.757 49.8911 137.867 49.3858 137.977 48.8705C138.487 48.4253 139.037 48.0701 139.653 47.7599C140.158 47.5048 140.503 46.9145 141.113 46.7094C141.759 46.4943 142.334 46.034 142.964 45.8839C144.715 45.4637 146.276 44.5132 148.057 44.213C148.302 44.048 148.607 44.2531 148.852 44.083C149.293 43.9929 149.738 43.9029 150.178 43.8178C150.423 43.6577 150.728 43.8529 150.979 43.6928C151.199 43.6928 151.419 43.6928 151.639 43.6928C151.784 43.6928 151.924 43.6628 152.034 43.5627C152.374 43.3876 152.76 43.6077 153.095 43.4326C153.45 43.4326 153.8 43.4326 154.155 43.4326C154.465 43.5427 154.776 43.5427 155.086 43.4326C155.131 43.4326 155.176 43.4326 155.216 43.4326C155.576 43.3126 155.946 43.2976 156.326 43.2976C158.267 43.2976 160.208 43.3076 162.15 43.3026C162.33 43.3026 162.505 43.3026 162.65 43.4326C163.36 43.3376 164.001 43.5827 164.641 43.8328C164.761 43.9929 164.651 44.2681 164.906 44.3631C165.191 44.9184 164.926 45.3687 164.641 45.8189C164.466 45.9139 164.256 45.939 164.111 46.084C163.62 46.5393 162.91 46.6994 162.515 47.2747C162.29 47.3997 161.994 47.4097 161.854 47.6749C161.354 47.845 161.074 48.3002 160.674 48.5954C160.629 48.6304 160.579 48.6604 160.529 48.6854C160.344 48.7505 160.163 48.8205 160.058 49.0056C159.493 49.6509 158.753 50.0862 158.072 50.5914C156.667 51.632 155.291 52.7026 154.02 53.9082C153.895 53.9982 153.77 54.0883 153.645 54.1783H153.65Z" fill="#E80629"/>
<path d="M171.155 49.5306C172.065 49.5306 172.886 49.1104 173.766 48.9503C175.482 48.6402 177.193 48.8052 178.909 48.7252C180.55 48.6502 182.166 48.9303 183.731 49.3155C185.427 49.7307 187.118 50.251 188.734 50.9314C188.924 51.0114 189.059 50.9814 189.224 50.9714C189.57 51.0114 189.855 51.1765 190.135 51.3666C190.56 52.052 191.376 52.137 191.991 52.5272C193.372 53.4027 194.797 54.1831 196.098 55.2036C197.074 55.969 198.129 56.6644 199.02 57.5149C200.085 58.5354 201.261 59.4309 202.241 60.5565C202.747 61.1368 203.392 61.6621 203.942 62.2274C204.898 63.2079 205.948 64.1284 206.649 65.334C206.814 65.6192 206.704 65.9394 206.729 66.2445C206.424 66.6147 206.078 66.9299 205.663 67.17C205.353 67.3951 205.123 67.14 204.868 67.0349C202.732 66.0794 200.545 65.274 198.249 64.7887C197.844 64.7037 197.469 64.4636 197.034 64.5186C196.948 64.5186 196.858 64.5186 196.773 64.5136C196.583 64.3035 196.333 64.4135 196.108 64.3835C194.872 64.0083 193.597 63.7732 192.321 63.6031C187.879 63.0078 183.401 62.9277 178.934 63.0928C176.838 63.1679 174.747 63.1479 172.651 63.1929C170.554 63.2379 168.463 63.0428 166.372 63.0178C165.502 63.0078 164.611 62.7827 163.721 62.7927C163.191 62.5576 162.6 62.5626 162.055 62.5525C160.809 62.5275 159.624 62.1573 158.403 62.0873C157.558 62.0373 156.892 61.557 156.097 61.4019C155.301 61.2469 155.076 60.4164 155.682 59.9011C157.037 58.7405 158.198 57.3798 159.624 56.2742C160.234 55.799 160.839 55.2437 161.48 54.7834C162.725 53.8929 163.876 52.8674 165.297 52.2221C166.122 51.8469 166.842 51.2565 167.703 50.9314C168.438 50.6512 169.079 50.0309 169.969 50.296C170.219 49.8108 171.005 50.146 171.165 49.5206L171.155 49.5306Z" fill="#01408D"/>
<path d="M137.326 71.3823C136.341 71.1922 135.43 71.0372 134.535 70.827C133.869 70.672 133.199 70.5569 132.524 70.5069C131.843 70.4568 131.298 70.0316 130.583 70.0016C129.537 69.9566 128.506 69.5464 127.461 69.4663C126.295 69.3763 125.19 69.0111 123.999 69.0011C122.598 68.9911 121.198 68.7259 119.847 68.3507C118.721 68.0406 117.596 67.7004 116.62 66.945C116.065 66.5198 115.525 66.1446 115.174 65.5242C114.829 64.9189 114.704 64.2786 114.899 63.6282C115.189 62.6577 115.62 61.7622 116.32 60.9918C116.91 60.3465 117.426 59.6361 118.041 59.0008C119.402 57.6 120.932 56.4144 122.503 55.2788C123.834 54.3183 125.19 53.3928 126.575 52.5173C127.086 52.1921 127.681 52.007 128.221 51.7019C128.692 51.4367 129.127 51.972 129.517 52.2672C130.087 52.7024 130.322 53.3978 130.743 53.9481C131.588 55.0637 132.434 56.1592 133.394 57.1898C134.3 58.1553 135.335 58.9357 136.346 59.7462C137.486 60.6566 138.772 61.387 139.943 62.2625C140.688 62.8178 141.523 63.288 142.044 64.1235C142.244 64.4437 142.299 64.7788 142.174 65.064C141.834 65.8394 141.538 66.6298 140.993 67.3152C140.343 68.1356 139.898 69.1111 139.202 69.9016C138.737 70.4318 138.327 71.0221 137.621 71.2723C137.501 71.3173 137.376 71.3623 137.331 71.3823H137.326Z" fill="#E80629"/>
<path d="M105.18 93.9944C104.389 94.2546 104.114 95.05 103.574 95.5703C103.048 96.0756 102.603 96.6709 102.068 97.1711C101.913 97.3162 101.848 97.4913 101.853 97.6964C101.132 97.8965 100.927 98.6019 100.532 99.1022C100.262 99.4423 100.037 99.8826 99.7217 100.128C98.9613 100.723 98.2259 100.643 97.7707 99.5224C97.6256 99.1672 97.6656 98.772 97.6956 98.3668C97.8207 96.7859 98.0808 95.2251 98.296 93.6643C98.456 92.5137 98.7412 91.3831 99.0213 90.2525C99.5266 88.2164 100.117 86.2053 100.787 84.2092C101.102 83.2737 101.688 82.4883 101.918 81.5128C102.138 80.5823 103.414 80.2722 104.364 80.7974C105.15 81.2327 105.915 81.7079 106.705 82.1381C107.311 82.4683 108.031 82.5884 108.666 82.6484C109.992 82.7735 111.353 82.8635 112.689 82.5384C113.944 82.2282 114.55 80.5973 114.47 79.5468C114.359 78.116 113.389 77.5507 112.218 77.1405C111.258 77.1955 110.427 76.8203 109.632 76.3401C109.267 76.1199 109.067 75.7948 109.187 75.3996C109.317 74.9743 109.502 74.5541 110.007 74.389C110.783 74.1389 111.578 74.0088 112.383 73.9588C114.029 73.8487 115.675 73.6786 117.316 73.7137C118.912 73.7487 120.498 74.0288 122.094 74.1589C123.514 74.274 124.895 74.6642 126.321 74.7692C127.331 74.8443 128.332 75.1394 129.332 75.3395C130.298 75.5346 131.258 75.7397 132.224 75.9348C132.574 76.0049 132.914 76.0949 133.205 76.3C134.235 77.0304 134.35 77.8409 133.6 79.1566C133.435 79.4417 133.245 79.7119 133.179 80.047C132.159 81.2877 131.694 82.8035 131.098 84.2543C130.393 85.9752 129.147 86.2253 127.557 86.0652C125.345 85.8401 123.154 85.7451 120.933 86.0652C119.667 86.2503 118.402 86.4004 117.206 86.8256C115.665 87.3659 114.049 87.7161 112.654 88.6416C112.423 88.7967 112.123 88.8367 111.868 88.9568C110.097 89.7972 108.556 90.9828 107.066 92.2285C106.55 92.6587 106.035 93.099 105.495 93.4992C105.325 93.6242 105.27 93.8193 105.17 93.9894L105.18 93.9944Z" fill="#E80629"/>
<path d="M84.7214 38.3203L86.9943 36.1819C88.902 34.3872 90.8713 34.4473 92.666 36.3549L93.9261 37.6944C94.1171 37.8973 94.1301 38.1145 93.9069 38.3245L91.8572 40.2529C91.6543 40.4438 91.4179 40.4366 91.227 40.2337L90.4251 39.3813C89.9287 38.8537 89.3976 38.8178 88.8496 39.3333L87.7335 40.3834C87.2261 40.8607 87.189 41.4312 87.6854 41.9588L89.3083 43.6838L95.7087 40.6464C96.1683 40.4435 96.58 40.5152 96.9428 40.9008L100.532 44.7161C102.327 46.6238 102.267 48.5931 100.359 50.3879L98.0862 52.5262C96.1989 54.3019 94.2092 54.2609 92.4145 52.3532L91.1735 51.0341C90.9635 50.8109 90.9898 50.5948 91.1927 50.4039L93.2424 48.4755C93.4657 48.2655 93.6626 48.2715 93.8726 48.4948L94.6745 49.3471C95.19 49.8951 95.7426 49.8725 96.25 49.3952L97.3459 48.3642C97.8735 47.8678 97.9094 47.3366 97.3939 46.7887L95.4656 44.739L89.1057 47.7383C88.6259 47.9602 88.2141 47.8885 87.8514 47.5029L84.5483 43.992C82.7536 42.0844 82.834 40.0959 84.7214 38.3203Z" fill="#161616"/>
<path d="M108.951 42.7367L99.4205 26.7491C99.2779 26.5098 99.3359 26.2805 99.5752 26.1379L105.319 22.7136C107.569 21.3724 109.479 21.8557 110.82 24.1054L113.617 28.7964C114.944 31.0222 114.46 32.9323 112.225 34.2974L109.224 36.1191L112.077 40.9058C112.22 41.1451 112.186 41.36 111.922 41.517L109.563 42.8913C109.323 43.034 109.094 42.976 108.951 42.7367ZM107.383 33.0317L109.762 31.5809C110.408 31.1957 110.505 30.6512 110.149 30.0529L108.066 26.5586C107.695 25.9363 107.184 25.7867 106.538 26.172L104.158 27.6227L107.383 33.0317Z" fill="#161616"/>
<path d="M124.224 30.4628L120.61 19.5667C119.785 17.0807 120.669 15.3198 123.155 14.4952L126.117 13.5128C128.603 12.6882 130.364 13.5719 131.189 16.058L134.803 26.9541C135.627 29.4401 134.743 31.201 132.257 32.0256L129.295 33.008C126.809 33.8326 125.048 32.9488 124.224 30.4628ZM128.851 29.3683L130.544 28.8069C131.232 28.5788 131.488 28.1122 131.251 27.3982L128.076 17.8244C127.847 17.1368 127.354 16.8893 126.667 17.1174L124.974 17.6788C124.287 17.9069 124.039 18.3999 124.267 19.0875L127.443 28.6613C127.679 29.3754 128.164 29.5964 128.851 29.3683Z" fill="#161616"/>
<path d="M152.813 12.5917L153.389 18.1627C153.555 19.7702 153.146 20.961 152.186 21.7044L154.243 27.5145C154.36 27.8385 154.211 28.022 153.906 28.0535L151.19 28.3341C150.913 28.3627 150.76 28.2384 150.679 27.9947L148.784 22.6721L146.318 22.9269L146.876 28.3316C146.905 28.6087 146.755 28.7922 146.478 28.8208L143.762 29.1014C143.485 29.1301 143.301 28.9809 143.273 28.7038L141.36 10.1894C141.332 9.91221 141.481 9.72873 141.758 9.7001L148.41 9.01292C151.015 8.74377 152.544 9.98642 152.813 12.5917ZM145.948 19.3515L148.72 19.0652C149.44 18.9907 149.788 18.5626 149.714 17.842L149.282 13.6569C149.207 12.9362 148.779 12.5883 148.058 12.6628L145.287 12.9491L145.948 19.3515Z" fill="#161616"/>
<path d="M174.057 9.73348C174.362 9.76672 174.482 9.94802 174.452 10.225L174.15 12.995C174.12 13.2719 173.963 13.423 173.659 13.3898L170.445 13.0393L168.777 28.3293C168.744 28.634 168.591 28.7574 168.286 28.7242L165.405 28.4099C165.128 28.3797 164.977 28.2231 165.01 27.9184L166.678 12.6283L163.465 12.2778C163.188 12.2476 163.04 12.0633 163.07 11.7863L163.373 9.01633C163.403 8.73934 163.587 8.59127 163.864 8.62149L174.057 9.73348Z" fill="#161616"/>
<path d="M189.17 13.3504L192.132 14.3329C194.618 15.1574 195.501 16.9184 194.677 19.4044L194.098 21.1499C194.01 21.4144 193.825 21.5292 193.534 21.4327L190.863 20.5467C190.599 20.459 190.493 20.2477 190.58 19.9832L190.949 18.8725C191.177 18.1848 190.956 17.7006 190.242 17.4637L188.787 16.9813C188.126 16.762 187.607 17.0006 187.378 17.6883L186.633 19.9362L192.349 24.1219C192.746 24.4297 192.879 24.826 192.712 25.3285L191.063 30.3005C190.238 32.7865 188.477 33.6703 185.991 32.8457L183.029 31.8633C180.57 31.0475 179.659 29.2778 180.484 26.7918L181.054 25.0727C181.151 24.7818 181.353 24.7022 181.618 24.7899L184.289 25.6759C184.58 25.7724 184.668 25.9485 184.572 26.2394L184.203 27.3501C183.966 28.0642 184.249 28.5396 184.91 28.7589L186.338 29.2326C187.026 29.4607 187.51 29.2396 187.747 28.5256L188.633 25.8544L182.97 21.6863C182.547 21.3698 182.414 20.9734 182.58 20.471L184.098 15.8956C184.923 13.4096 186.71 12.5347 189.17 13.3504Z" fill="#161616"/>
<path d="M196.808 36.7649L207.766 18.384C207.909 18.1446 208.114 18.0724 208.377 18.2293L214.121 21.6536C216.371 22.9948 216.84 24.9288 215.499 27.1786L208.208 39.4086C206.867 41.6583 204.957 42.1416 202.707 40.8004L196.963 37.3761C196.7 37.2192 196.651 37.0282 196.808 36.7649ZM201.718 35.9291L203.92 37.2417C204.543 37.6127 205.063 37.5013 205.448 36.8551L211.94 25.9653C212.325 25.3191 212.19 24.7843 211.568 24.4133L209.366 23.1007L201.718 35.9291Z" fill="#161616"/>
<path d="M230.316 33.7988L232.589 35.9372C234.496 37.7319 234.556 39.7012 232.762 41.6089L230.738 43.7601C230.547 43.963 230.331 43.9893 230.108 43.7793L227.997 41.7937C227.794 41.6027 227.787 41.3664 227.978 41.1635L229.467 39.5805C229.964 39.0529 229.967 38.5206 229.419 38.0051L228.445 37.0886C227.938 36.6113 227.366 36.609 226.87 37.1367L224.235 39.9373L227.576 46.0643C227.787 46.5309 227.76 46.926 227.397 47.3116L222.986 51.9995C221.192 53.9072 219.222 53.9673 217.315 52.1726L215.042 50.0342C213.154 48.2586 213.074 46.2701 214.869 44.3625L216.873 42.2316C217.083 42.0083 217.301 42.0214 217.504 42.2123L219.614 44.198C219.837 44.408 219.843 44.6049 219.633 44.8282L218.163 46.3908C217.648 46.9388 217.704 47.489 218.211 47.9663L219.185 48.8828C219.713 49.3792 220.245 49.3826 220.761 48.8347L223.3 46.1356L219.98 40.0276C219.729 39.5622 219.775 39.1468 220.138 38.7613L224.644 33.9718C226.439 32.0642 228.428 32.0232 230.316 33.7988Z" fill="#161616"/>
<path d="M60.413 80.1407L74.4765 82.5372C74.6596 82.5685 74.7539 82.6787 74.7196 82.8802L73.9706 87.275C73.6773 88.9963 72.5874 89.7528 70.8661 89.4594L61.5087 87.8649C59.7874 87.5715 59.0279 86.4999 59.3212 84.7786L60.0701 80.3838C60.1044 80.1823 60.2116 80.1064 60.413 80.1407ZM62.1128 82.9931L61.8257 84.6778C61.7446 85.1539 61.939 85.4508 62.4334 85.5351L70.7652 86.9549C71.2597 87.0392 71.5597 86.8265 71.6409 86.3504L71.9279 84.6657L62.1128 82.9931Z" fill="#161616"/>
<path d="M58.0137 103.687L58.0384 101.718C58.0405 101.551 58.1345 101.46 58.3021 101.424L61.0205 100.938L61.062 97.6322L58.3564 97.0967C58.1897 97.0574 58.098 96.9634 58.1001 96.7962L58.125 94.8088C58.1276 94.6044 58.2402 94.513 58.4438 94.5712L72.6888 97.8337C72.8741 97.8731 72.947 97.9855 72.9449 98.1527L72.9125 100.735C72.9104 100.902 72.8347 101.012 72.6485 101.047L58.3262 103.951C58.1214 103.986 58.0109 103.91 58.0137 103.687ZM63.181 100.501L69.6783 99.3936L63.2108 98.1235L63.181 100.501Z" fill="#161616"/>
<path d="M73.2661 109.362L74.2451 116.127C74.2744 116.329 74.1774 116.437 73.9936 116.464L72.1551 116.73C71.9713 116.756 71.8477 116.68 71.8184 116.478L71.5098 114.346L59.5232 116.08C59.321 116.109 59.2158 116.031 59.1865 115.829L58.9098 113.917C58.8832 113.733 58.9592 113.609 59.1614 113.58L71.148 111.845L70.8394 109.713C70.8128 109.529 70.9071 109.403 71.091 109.376L72.9294 109.11C73.1132 109.083 73.2395 109.178 73.2661 109.362Z" fill="#161616"/>
<path d="M63.8189 134.665L63.2371 132.784C63.1877 132.624 63.249 132.508 63.3978 132.423L65.835 131.125L64.858 127.966L62.1188 128.288C61.9482 128.302 61.832 128.241 61.7826 128.081L61.1953 126.182C61.1349 125.987 61.2139 125.865 61.4256 125.858L75.9837 124.583C76.1721 124.564 76.276 124.648 76.3254 124.808L77.0884 127.275C77.1378 127.434 77.0997 127.563 76.9333 127.653L64.1975 134.82C64.0132 134.916 63.8848 134.878 63.8189 134.665ZM67.7564 130.044L73.5986 126.993L67.0538 127.773L67.7564 130.044Z" fill="#161616"/>
<path d="M71.8102 151.222L83.8944 143.639C84.0517 143.541 84.2054 143.576 84.3041 143.733L86.6737 147.509C87.6018 148.988 87.3087 150.269 85.8296 151.197L81.9904 153.606C80.527 154.524 79.2309 154.241 78.3028 152.762L77.1181 150.874L73.1529 153.362C72.9956 153.461 72.8518 153.441 72.7432 153.268L71.7164 151.632C71.6176 151.474 71.6528 151.321 71.8102 151.222ZM79.195 149.57L80.0639 150.955C80.3304 151.38 80.6948 151.436 81.0882 151.19L84.0463 149.333C84.4554 149.077 84.5473 148.734 84.2808 148.309L83.4119 146.924L79.195 149.57Z" fill="#161616"/>
<path d="M81.8816 161.847L89.1177 155.675C90.4462 154.542 91.7556 154.646 92.8887 155.975L94.2389 157.557C95.372 158.886 95.2681 160.195 93.9396 161.328L86.7036 167.501C85.3751 168.634 84.0657 168.53 82.9325 167.201L81.5824 165.618C80.4492 164.29 80.5531 162.981 81.8816 161.847ZM83.7551 164.473L84.4543 165.293C84.7677 165.66 85.1202 165.701 85.5018 165.376L92.0312 159.807C92.3987 159.493 92.4278 159.127 92.1144 158.759L91.4152 157.939C91.1018 157.572 90.7351 157.543 90.3677 157.856L83.8383 163.426C83.4567 163.751 83.4417 164.106 83.7551 164.473Z" fill="#161616"/>
<path d="M107.087 169.642L108.445 170.769C108.631 170.923 108.636 171.12 108.467 171.294L98.2222 181.138C98.0537 181.312 97.8824 181.314 97.6966 181.16L96.2957 179.998C96.1242 179.855 96.0953 179.686 96.1948 179.479L100.07 171.784L93.1954 177.014C93.022 177.136 92.8508 177.139 92.6792 176.996L91.2498 175.81C91.064 175.656 91.0351 175.487 91.175 175.289L99.0187 163.453C99.1586 163.255 99.3536 163.224 99.5394 163.378L100.897 164.505C101.069 164.647 101.1 164.842 100.972 165.026L95.9778 172.178L96.0493 172.237L103.028 166.708C103.213 166.572 103.385 166.569 103.556 166.711L104.414 167.423C104.585 167.566 104.614 167.734 104.515 167.941L100.352 175.808L100.423 175.867L106.561 169.664C106.718 169.504 106.915 169.499 107.087 169.642Z" fill="#161616"/>
<path d="M119.343 177.719L118.418 179.331C118.326 179.492 118.197 179.568 118.004 179.457L113.975 177.146L112.127 180.368L115.204 182.134C115.365 182.226 115.407 182.378 115.305 182.556L114.39 184.151C114.288 184.328 114.136 184.369 113.975 184.277L110.897 182.511L109.03 185.766L113.058 188.077C113.252 188.188 113.27 188.305 113.168 188.483L112.244 190.094C112.151 190.255 112.032 190.315 111.838 190.204L105.909 186.802C105.764 186.719 105.722 186.567 105.815 186.406L112.914 174.031C113.006 173.87 113.158 173.829 113.303 173.912L119.233 177.314C119.426 177.425 119.435 177.558 119.343 177.719Z" fill="#161616"/>
<path d="M130.246 184.957L128.608 189.183C128.158 190.343 127.43 190.938 126.458 190.979L125.894 195.98C125.865 196.208 125.721 196.272 125.53 196.198L123.729 195.5C123.556 195.433 123.503 195.312 123.529 195.143L124.074 190.294L122.878 189.831L121.187 194.195C121.119 194.369 120.975 194.432 120.802 194.365L119.001 193.667C118.828 193.6 118.764 193.456 118.831 193.282L123.987 179.981C124.054 179.807 124.198 179.744 124.372 179.811L128.719 181.496C130.347 182.127 130.877 183.329 130.246 184.957ZM123.765 187.545L125.479 188.209C125.93 188.384 126.266 188.235 126.441 187.785L127.703 184.529C127.877 184.078 127.729 183.742 127.279 183.567L125.564 182.903L123.765 187.545Z" fill="#161616"/>
<path d="M144.049 186.103L143.646 187.916C143.605 188.097 143.505 188.208 143.287 188.16L138.754 187.152L137.947 190.779L141.411 191.548C141.592 191.589 141.677 191.722 141.632 191.921L141.233 193.716C141.189 193.916 141.056 194 140.875 193.96L137.411 193.19L136.597 196.853L141.13 197.861C141.348 197.909 141.4 198.016 141.356 198.216L140.953 200.029C140.912 200.21 140.816 200.303 140.598 200.254L133.925 198.771C133.762 198.735 133.677 198.602 133.718 198.42L136.814 184.494C136.854 184.313 136.987 184.228 137.15 184.265L143.823 185.748C144.041 185.796 144.089 185.921 144.049 186.103Z" fill="#161616"/>
<path d="M148.182 201.092L149.221 186.864C149.235 186.678 149.336 186.574 149.539 186.589L153.986 186.914C155.727 187.041 156.584 188.053 156.457 189.795L155.766 199.262C155.639 201.003 154.645 201.862 152.903 201.735L148.457 201.41C148.253 201.395 148.167 201.296 148.182 201.092ZM150.858 199.127L152.563 199.251C153.045 199.287 153.322 199.065 153.358 198.564L153.974 190.135C154.01 189.635 153.77 189.356 153.288 189.321L151.584 189.197L150.858 199.127Z" fill="#161616"/>
<path d="M173.35 200.707L170.837 186.664C170.805 186.481 170.895 186.352 171.078 186.319L175.466 185.534C177.185 185.226 178.263 185.977 178.57 187.696L179.369 192.158C179.673 193.858 178.926 194.954 177.207 195.262L175.013 195.655L175.837 200.262C175.87 200.445 175.798 200.571 175.597 200.607L173.695 200.948C173.512 200.98 173.383 200.89 173.35 200.707ZM174.581 193.241L176.19 192.953C176.683 192.865 176.872 192.548 176.79 192.091L176.175 188.653C176.09 188.178 175.806 187.964 175.313 188.052L173.704 188.34L174.581 193.241Z" fill="#161616"/>
<path d="M190.228 181.715L190.817 183.476C190.876 183.653 190.847 183.799 190.636 183.87L186.232 185.344L187.411 188.867L190.775 187.741C190.951 187.682 191.092 187.752 191.157 187.946L191.741 189.69C191.806 189.884 191.735 190.025 191.559 190.084L188.195 191.21L189.385 194.768L193.789 193.295C194.001 193.224 194.101 193.288 194.165 193.482L194.755 195.244C194.814 195.42 194.779 195.549 194.567 195.62L188.085 197.789C187.926 197.842 187.785 197.772 187.726 197.596L183.199 184.067C183.14 183.891 183.21 183.75 183.369 183.697L189.852 181.527C190.063 181.457 190.169 181.539 190.228 181.715Z" fill="#161616"/>
<path d="M202.882 178.379L204.951 182.412C205.519 183.519 205.479 184.459 204.863 185.213L208.225 188.958C208.376 189.131 208.328 189.281 208.146 189.374L206.427 190.256C206.262 190.341 206.137 190.3 206.028 190.169L202.767 186.539L201.626 187.124L203.763 191.289C203.848 191.454 203.799 191.604 203.634 191.689L201.915 192.57C201.75 192.655 201.6 192.607 201.515 192.442L195.004 179.748C194.919 179.583 194.967 179.433 195.132 179.348L199.281 177.22C200.835 176.423 202.085 176.825 202.882 178.379ZM200.507 184.942L202.143 184.102C202.573 183.882 202.686 183.532 202.465 183.102L200.872 179.995C200.651 179.565 200.301 179.452 199.871 179.673L198.235 180.512L200.507 184.942Z" fill="#161616"/>
<path d="M212.927 168.817L214.014 170.324C214.123 170.474 214.098 170.63 213.947 170.739L210.211 173.434L212.396 176.462L215.228 174.419C215.379 174.31 215.534 174.335 215.643 174.486L216.73 175.992C216.849 176.158 216.813 176.298 216.663 176.407L213.83 178.45L217.298 183.256C217.406 183.407 217.381 183.562 217.23 183.671L215.664 184.801C215.498 184.921 215.357 184.885 215.249 184.734L206.902 173.165C206.793 173.014 206.803 172.869 206.969 172.75L212.512 168.75C212.663 168.641 212.819 168.667 212.927 168.817Z" fill="#161616"/>
<path d="M225.202 173.997L218.576 167.175C217.359 165.922 217.378 164.609 218.631 163.392L220.123 161.943C221.376 160.726 222.689 160.745 223.906 161.998L230.532 168.82C231.749 170.073 231.729 171.386 230.477 172.603L228.985 174.052C227.732 175.269 226.419 175.25 225.202 173.997ZM227.701 171.958L228.474 171.208C228.821 170.871 228.839 170.517 228.49 170.157L222.51 164.001C222.174 163.654 221.806 163.649 221.459 163.985L220.687 164.736C220.34 165.073 220.335 165.44 220.671 165.787L226.651 171.943C227 172.303 227.355 172.295 227.701 171.958Z" fill="#161616"/>
<path d="M232.197 151.819L235.808 154.558C236.8 155.31 237.17 156.174 236.942 157.12L241.594 159.04C241.806 159.13 241.827 159.287 241.704 159.449L240.536 160.989C240.424 161.137 240.294 161.154 240.138 161.083L235.627 159.223L234.852 160.244L238.582 163.073C238.73 163.186 238.751 163.342 238.639 163.49L237.472 165.029C237.359 165.177 237.203 165.198 237.055 165.086L225.689 156.465C225.541 156.352 225.519 156.196 225.632 156.048L228.449 152.333C229.504 150.942 230.806 150.764 232.197 151.819ZM232.899 158.763L234.01 157.297C234.302 156.913 234.252 156.548 233.867 156.256L231.085 154.146C230.7 153.854 230.335 153.904 230.044 154.289L228.932 155.754L232.899 158.763Z" fill="#161616"/>
<path d="M236.829 138.619L237.955 136.441C238.066 136.226 238.241 136.17 238.455 136.281L250.997 142.763C251.211 142.874 251.267 143.05 251.156 143.264L250.363 144.799C250.252 145.013 250.077 145.069 249.862 144.958L242.437 141.12L242.377 141.236L248.991 146.724C249.164 146.876 249.203 147.043 249.101 147.241L248.683 148.05C248.58 148.248 248.422 148.312 248.198 148.259L239.895 146.038L239.835 146.153L247.261 149.991C247.476 150.102 247.531 150.277 247.42 150.492L246.636 152.01C246.525 152.225 246.35 152.28 246.135 152.17L233.594 145.687C233.379 145.576 233.323 145.401 233.434 145.187L234.56 143.008C234.662 142.81 234.821 142.746 235.045 142.799L244.21 145.215L236.938 139.136C236.766 138.984 236.727 138.817 236.829 138.619Z" fill="#161616"/>
<path d="M257.14 126.628L256.558 128.509C256.509 128.669 256.393 128.73 256.222 128.716L253.477 128.411L252.5 131.57L254.943 132.851C255.092 132.936 255.153 133.052 255.104 133.212L254.516 135.11C254.456 135.306 254.322 135.361 254.143 135.248L241.407 128.081C241.241 127.991 241.203 127.862 241.252 127.702L242.015 125.236C242.065 125.076 242.169 124.991 242.357 125.011L256.915 126.286C257.121 126.311 257.206 126.415 257.14 126.628ZM251.281 128.218L244.737 127.439L250.579 130.49L251.281 128.218Z" fill="#161616"/>
<path d="M244.931 111.209L245.197 109.296C245.223 109.112 245.349 109.017 245.533 109.043L259.662 111.012C259.846 111.038 259.941 111.164 259.916 111.348L259.662 113.169C259.639 113.335 259.55 113.435 259.376 113.467L251.128 115.187L251.115 115.279L258.916 116.366C259.1 116.392 259.198 116.499 259.169 116.701L258.903 118.615C258.877 118.799 258.751 118.894 258.567 118.868L244.438 116.899C244.254 116.873 244.159 116.747 244.184 116.563L244.438 114.742C244.461 114.576 244.55 114.476 244.724 114.444L252.932 112.737L252.948 112.627L245.184 111.545C245 111.519 244.902 111.412 244.931 111.209Z" fill="#161616"/>
<path d="M248.158 95.9532L250.164 95.9176C250.35 95.9143 250.463 96.0238 250.466 96.2095L250.499 98.0668C250.503 98.2711 250.393 98.3659 250.207 98.3692L248.721 98.3956C248.239 98.4042 247.983 98.6688 247.992 99.1517L248.009 100.117C248.018 100.619 248.282 100.856 248.765 100.847L257.234 100.697C257.736 100.688 257.973 100.424 257.964 99.9408L257.947 98.975C257.938 98.4921 257.692 98.2364 257.191 98.2453L255.705 98.2716C255.519 98.2749 255.406 98.1841 255.402 97.9798L255.369 96.1225C255.366 95.9367 255.476 95.8233 255.661 95.82L257.667 95.7844C259.413 95.7534 260.359 96.6842 260.389 98.4115L260.426 100.492C260.457 102.237 259.545 103.201 257.799 103.232L248.29 103.401C246.544 103.432 245.599 102.501 245.568 100.755L245.531 98.6751C245.5 96.9479 246.412 95.9842 248.158 95.9532Z" fill="#161616"/>
<path d="M243.999 82.5555L245.83 82.2435C246.014 82.2123 246.154 82.2637 246.192 82.4834L246.972 87.0614L250.634 86.4373L250.038 82.9397C250.007 82.7566 250.098 82.628 250.3 82.5937L252.112 82.2848C252.314 82.2504 252.442 82.3416 252.474 82.5247L253.07 86.0223L256.769 85.3919L255.989 80.814C255.951 80.5942 256.03 80.5054 256.232 80.4711L258.063 80.159C258.246 80.1278 258.368 80.1823 258.406 80.4021L259.554 87.1408C259.582 87.3056 259.491 87.4342 259.308 87.4654L245.244 89.862C245.061 89.8932 244.933 89.802 244.905 89.6372L243.756 82.8985C243.719 82.6787 243.816 82.5867 243.999 82.5555Z" fill="#161616"/>
<g clip-path="url(#clip0_1_49)">
<path d="M79.0562 60.8271C78.9679 60.5554 78.727 60.3631 78.443 60.3374L74.5703 59.9858L73.0397 56.4025C72.9267 56.1392 72.6696 55.9693 72.3834 55.9693C72.0972 55.9693 71.84 56.1392 71.7277 56.4025L70.1972 59.9858L66.3238 60.3374C66.0399 60.3636 65.7994 60.5559 65.7106 60.8271C65.6223 61.0987 65.7038 61.3967 65.9186 61.585L68.8461 64.152L67.9829 67.9537C67.9198 68.2333 68.0283 68.5223 68.2602 68.69C68.3849 68.7806 68.5313 68.8258 68.6783 68.8258C68.8046 68.8258 68.931 68.7922 69.0439 68.7247L72.3834 66.7279L75.7223 68.7247C75.9672 68.871 76.2752 68.8576 76.5066 68.69C76.7386 68.5223 76.8471 68.2333 76.7839 67.9537L75.9208 64.152L78.8483 61.585C79.0629 61.3967 79.1446 61.0993 79.0562 60.8271Z" fill="#E80629"/>
</g>
<g clip-path="url(#clip1_1_49)">
<path d="M250.366 60.8271C250.278 60.5554 250.037 60.3631 249.753 60.3374L245.88 59.9858L244.349 56.4025C244.236 56.1392 243.979 55.9693 243.693 55.9693C243.407 55.9693 243.15 56.1392 243.037 56.4025L241.507 59.9858L237.634 60.3374C237.35 60.3636 237.109 60.5559 237.02 60.8271C236.932 61.0987 237.014 61.3967 237.228 61.585L240.156 64.152L239.293 67.9537C239.229 68.2333 239.338 68.5223 239.57 68.69C239.695 68.7806 239.841 68.8258 239.988 68.8258C240.114 68.8258 240.241 68.7922 240.354 68.7247L243.693 66.7279L247.032 68.7247C247.277 68.871 247.585 68.8576 247.816 68.69C248.048 68.5223 248.157 68.2333 248.094 67.9537L247.23 64.152L250.158 61.585C250.373 61.3967 250.454 61.0993 250.366 60.8271Z" fill="#01408D"/>
</g>
<path fill-rule="evenodd" clip-rule="evenodd" d="M4.659 500.35C10.8121 498.399 16.8787 496.33 22.9553 494.149C16.8155 495.55 10.6491 496.827 4.46266 497.992C14.3696 494.799 24.0069 491.41 33.7474 487.71C40.3997 486.136 47.0121 484.401 53.5778 482.496C46.6027 485.625 39.6543 488.571 32.5494 491.383C36.6127 490.272 40.6593 489.101 44.6859 487.87L39.9604 490.252C44.5894 488.574 49.1885 486.813 53.7509 484.968C53.9672 484.891 54.1868 484.818 54.4031 484.741L47.4713 488.261C51.1685 486.806 54.6261 485.415 56.9123 484.434C56.1602 484.871 55.4281 485.348 54.6727 485.782C50.7725 487.74 46.8723 489.638 42.9155 491.477C45.468 490.409 48.0104 489.315 50.5429 488.194C48.9555 489.141 47.3548 490.069 45.7375 490.963C41.4912 492.958 37.2449 494.883 32.9421 496.741C37.6476 494.893 42.3198 492.961 46.9555 490.943C51.6311 489.055 56.27 487.076 60.8657 485.012C52.1236 490.276 43.4413 495.196 34.4163 499.94C54.4298 492.327 73.8409 483.24 92.3102 472.375C110.6 462.641 127.535 450.374 143.043 436.64C135.958 441.271 128.693 445.621 121.266 449.674C123.186 448.233 125.083 446.782 126.956 445.317C120.454 449.314 113.708 452.986 107.169 456.279L107.159 456.286C107.159 456.286 98.1073 462.474 84.9291 469.172C71.751 475.871 62.0138 479.01 62.0138 479.01C62.0138 479.01 67.6312 475.904 79.598 468.725C64.4931 474.844 48.2933 481.876 33.3381 487.347C22.2997 489.648 11.1715 491.52 6.10352e-05 493.044C21.7007 487.146 41.9704 480.108 61.9739 471.064L66.3966 469.029C67.8608 468.342 69.3284 467.645 70.7926 466.937C98.6497 453.23 116.304 435.93 116.304 435.93L99.3053 447.605C82.3068 459.281 64.2634 465.526 64.2634 465.526C64.2634 465.526 98.6431 450.858 135.186 411.661C171.728 372.46 195.436 326.781 195.436 326.781C195.436 326.781 195.422 328.572 175.848 363.032C156.271 397.493 136.663 418.036 136.663 418.036C136.663 418.036 142.87 413.515 161.033 394.517C179.196 375.519 224.058 310.421 224.058 310.421C224.058 310.421 187.036 385.737 158.124 419.75C159.402 418.746 160.673 417.729 161.938 416.705C157.865 420.921 153.742 424.924 149.509 428.811H149.505V428.817C145.272 432.7 140.93 436.467 136.414 440.21C147.452 433.731 158.088 426.582 168.288 418.843C146.846 441.304 122.247 460.752 94.7029 475.13C67.0621 491.213 37.5178 503.256 6.95852 512.496C20.8954 506.118 34.0203 499.409 47.4081 491.9C40.4563 494.649 33.4279 497.204 26.343 499.583C19.2481 502.205 12.09 504.65 4.87863 506.932C12.9552 504.01 22.5393 499.91 29.8705 496.647C24.7024 498.579 13.887 501.608 8.65237 503.399C11.5576 502.248 21.8239 498.212 24.8888 497.064L7.16485 501.538C7.16485 501.538 8.87534 500.974 11.5509 500.093C17.0684 498.245 22.5094 496.31 27.9404 494.275L36.6659 490.769C26.1234 494.359 15.4378 497.531 4.66566 500.354" fill="#DADADA"/>
<mask id="mask0_1_49" style="mask-type:luminance" maskUnits="userSpaceOnUse" x="21" y="359" width="84" height="144">
<path d="M84.3505 470.744C82.8829 473.226 80.4613 477.078 79.6408 478.903C78.6335 481.144 78.5868 481.191 77.0759 481.605C75.5649 482.015 68.2436 484.533 64.0309 484.763C61.4793 484.903 58.8243 485.897 57.1299 486.661C57.1332 488.175 56.6696 489.513 55.4955 489.797C55.4955 489.797 53.2007 490.837 52.4202 493.045C52.1734 493.746 51.8565 494.936 51.533 496.234C50.8325 499.036 49.525 502.254 49.525 502.254C49.3082 502.168 45.9194 502.715 45.269 499.9C44.6186 497.085 46.3097 492.515 46.353 490.307C46.3964 488.099 45.5892 487.008 45.9628 484.633C46.2229 482.976 47.0468 482.122 47.0468 482.122C47.0468 482.122 53.1974 480.974 55.0585 481.668C55.1786 481.711 55.292 481.778 55.4054 481.861C57.2733 480.988 60.2285 479.423 62.063 477.529C64.9015 474.6 69.3876 474.14 71.1254 474.233C72.8665 474.323 72.2695 472.219 73.6904 467.826C73.8805 467.236 74.104 466.695 74.3508 466.195C73.7938 465.144 73.9038 464.37 73.9038 464.37C73.9038 464.37 75.5983 461.465 75.5983 459.861C75.5983 458.256 76.7423 456.999 76.7423 456.999C75.5282 457.96 74.4875 459.881 73.2301 460.998C71.5457 462.493 69.6578 463.216 68.1969 464.677C68.1969 464.677 67.4598 464.684 66.4191 464.497V464.527C65.6853 465.077 60.3753 467.869 58.1305 469.747C55.8891 471.625 56.1059 471.738 54.3648 471.705C52.6237 471.672 43.2544 476.054 40.2792 477.839C38.1111 479.14 35.1459 480.851 33.6916 481.688C33.9418 483.422 33.6316 485.047 32.3341 485.53C32.3341 485.53 29.9459 486.981 29.3822 489.52C29.2021 490.324 29.0153 491.678 28.8285 493.152C28.4316 496.331 27.421 500.05 27.421 500.05C27.1708 499.983 23.5118 501.037 22.4212 498.025C21.3305 495.013 22.5779 489.756 22.3311 487.315C22.0843 484.877 21.0503 483.786 21.1437 481.118C21.207 479.26 22.0009 478.206 22.0009 478.206C22.0009 478.206 28.6217 476.121 30.7631 476.635C30.9899 476.688 31.2167 476.812 31.4402 476.985C33.1947 475.161 37.7042 470.531 40.4626 468.32C42.6873 466.535 44.235 465.181 46.0928 464.53C48.1875 463.797 49.9119 463.887 52.0633 464.06C52.0633 464.06 55.292 460.835 57.3967 458.27C57.6402 457.973 57.8937 457.679 58.1505 457.396C57.6435 456.449 57.3533 455.785 57.3533 455.785C57.3533 455.785 58.7609 455.058 60.2752 453.744C61.6828 452.523 63.0169 451.035 64.0609 450.105C64.4612 449.748 65.2317 449.491 65.3384 449.331C66.0389 448.31 66.1756 448.35 66.806 447.773C67.0628 446.489 67.5698 444.931 68.4971 443.104C69.5677 440.996 70.4617 439.585 71.1888 438.644C71.0887 438.3 71.022 437.917 71.022 437.517V436.006C71.022 436.006 70.415 434.071 70.6451 432.79C70.8752 431.509 70.7152 430.352 70.7018 430.262C70.6918 430.172 69.7179 428.304 68.824 425.489C67.9301 422.674 66.6292 418.805 64.4312 416.333C62.2331 413.862 56.2126 414.265 56.1325 414.035C56.0525 413.805 56.2693 412.764 56.2693 412.764C56.2693 412.764 47.5871 409.639 45.6159 408.148C43.648 406.66 42.5706 405.31 42.5706 405.31C42.5706 405.31 42.8441 401.26 45.4991 398.879C48.1542 396.497 51.2661 393.836 51.6897 393.285C51.7164 393.252 51.7398 393.219 51.7631 393.182V393.172L51.8198 393.088C52.1067 392.591 52.1067 392.074 52.3535 391.951C52.4235 391.918 52.6103 391.844 52.8538 391.751C52.9405 391.494 53.8311 388.872 53.8711 388.759C53.9845 388.629 53.8744 388.789 54.1313 388.442C54.218 388.325 54.3848 388.112 54.5816 387.868C54.6383 387.782 54.7117 387.668 54.805 387.512C54.9885 387.208 56.1993 385.22 56.2593 385.123C56.3227 385.027 56.6329 385.09 56.7363 385.54C56.7463 385.59 56.7496 385.647 56.7463 385.71C57.2499 385.2 57.7869 384.656 57.8336 384.613C57.917 384.533 58.2039 384.666 58.2039 385.13C58.2039 385.157 58.2039 385.183 58.1972 385.213C58.5908 384.817 58.931 384.47 58.9677 384.436C59.0511 384.356 59.3379 384.49 59.3379 384.953C59.3379 385.03 59.3146 385.117 59.2746 385.217C59.5914 384.957 59.8583 384.72 59.9183 384.673C59.9817 384.623 60.3619 384.706 60.3119 385.18C60.2618 385.654 58.981 386.798 58.5875 387.078C58.1939 387.358 57.9737 387.722 57.6235 388.219C57.9804 387.875 58.2372 387.652 58.474 387.455C58.7109 387.261 60.6921 385.614 60.7955 385.534C60.8956 385.457 61.2024 385.637 61.1457 386.154C61.0924 386.671 60.1318 387.572 59.5314 387.999C59.1311 388.285 58.3506 389.393 57.8837 390.117C57.4267 390.82 57.5768 390.947 58.2072 391.137C58.5274 391.234 58.7442 391.191 59.0678 391.161C59.8049 391.094 60.3419 391.08 60.7188 391.728C61.0957 392.375 59.5514 392.388 59.0577 392.391C58.5641 392.391 55.9091 393.068 55.739 393.195C55.5689 393.322 55.5655 393.309 55.4755 393.345C55.3087 393.472 55.1619 393.585 55.0085 393.732C54.9751 393.772 54.8651 393.916 54.695 394.132C54.3047 394.679 53.8444 395.34 53.3741 396.05L53.3341 395.98C52.6637 396.931 51.9633 398.005 51.583 398.825C50.8959 400.31 50.2655 401.734 49.1948 402.831C50.6157 402.998 51.4463 403.071 53.8711 403.495C56.296 403.919 57.2499 405.036 59.2612 405.696L59.5381 405.006C59.5381 405.006 63.6707 405.41 65.4785 406.16C65.9354 406.35 66.3857 406.49 66.8227 406.59C66.836 406.54 66.8527 406.49 66.8694 406.437C67.0495 405.953 67.5798 405.62 68.0468 405.4C67.6766 403.929 67.5698 402.298 68.1335 400.773C69.7345 396.454 72.0527 394.056 73.9706 393.669C75.8884 393.285 76.8857 393.726 77.5228 394.106C78.1599 394.486 79.0971 394.653 79.3173 394.763C79.5374 394.87 79.7275 395.583 79.8643 395.647C80.001 395.71 80.6014 395.703 80.8382 395.593C81.0751 395.483 81.3719 395.47 81.3719 395.47C81.8556 395.884 81.532 396.924 81.5787 397.038C81.6354 397.174 81.7188 397.348 81.7188 397.348C81.7188 397.348 81.9656 397.278 82.3025 397.571C82.6361 397.865 82.5794 398.499 82.5794 398.499C82.5794 398.499 82.8829 398.672 83.1264 398.942C83.3699 399.209 83.3265 399.876 83.2498 400.013C83.1731 400.15 83.5833 400.727 83.7901 401.394C83.9936 402.061 83.8568 401.981 83.3031 402.888C83.0096 403.365 82.7228 403.925 82.5193 404.346C83.0163 404.085 83.4332 403.769 83.7034 403.392C84.4806 402.318 84.0703 401.31 86.4718 398.882C87.7059 397.638 88.6432 397.051 89.2636 396.771C89.6338 396.147 90.1008 395.33 90.6612 394.326C91.942 392.038 95.4709 388.309 95.4709 388.309C95.4509 386.584 95.641 384.023 96.5449 381.875C97.5522 379.483 98.3427 375.574 98.7396 373.366C98.753 373.046 98.7229 372.789 98.6896 372.492C98.6496 372.385 98.6362 372.392 98.6029 372.138C98.5695 371.885 96.9385 369.03 96.5316 368.603C96.1213 368.176 94.8472 366.828 95.7177 366.615C96.5883 366.401 97.0252 366.875 97.5822 367.566C97.8257 367.869 97.9691 368.093 98.3194 368.289C99.0065 368.676 99.2399 368.7 99.4701 367.719C99.7069 366.712 100.014 365.117 99.927 364.53C99.8003 363.656 99.7469 361.922 100.147 361.445C100.547 360.968 100.958 361.078 100.974 361.232C100.991 361.385 101.241 364.51 101.278 364.987C101.298 365.244 101.328 365.761 101.328 366.358C101.461 365.641 101.591 365.147 101.508 364.574C101.425 364 101.345 361.942 101.712 361.505C102.078 361.068 102.469 361.325 102.479 361.422C102.489 361.518 102.509 361.979 102.552 362.502C102.832 362.276 103.149 362.419 103.159 362.502C103.169 362.582 103.202 363.003 103.246 363.55C103.483 363.433 103.706 363.493 103.713 363.603C103.719 363.713 104.34 366.361 104.35 366.755C104.363 367.152 104.13 369.046 104.043 369.557C103.956 370.067 104.006 369.837 103.986 370.044C103.916 370.181 102.239 373.433 102.239 373.439C102.128 374.924 101.765 375.894 101.765 377.432C101.765 379.126 102.269 384.71 101.535 387.868C100.801 391.027 98.7663 391.988 97.1153 396.2C95.4675 400.413 91.9186 404.382 91.9186 404.382C91.9186 404.382 91.9653 405.229 91.8953 406.717C93.5863 409.476 92.1488 416.043 92.1488 416.043C92.1488 417.044 92.1288 417.804 92.1221 418.081C93.9499 420.049 93.2428 421.813 93.2428 421.813C94.3635 423.164 94.8205 423.988 94.8205 424.628C94.8205 425.269 93.5396 428.061 93.5396 428.061L94.3068 430.132C94.3068 430.132 94.1567 431.209 93.7698 432.237C93.3795 433.267 93.2895 433.541 93.6797 434.638C94.07 435.736 93.8632 436.493 93.8632 436.493C93.8632 436.493 93.9332 436.059 93.2461 437.317C92.559 438.574 92.5357 439.148 92.5357 440.405C92.5357 441.663 92.489 442.213 92.489 442.213C92.489 442.213 92.2588 442.246 91.8652 442.296C92.0554 444.034 92.6758 450.175 92.0887 451.586C91.4016 453.233 91.2882 455.111 90.3043 456.759C89.3203 458.407 89.6172 463.006 88.8167 463.853C88.0161 464.701 87.8093 464.997 87.8093 464.997L85.6346 470.581C85.6346 470.581 85.1577 470.688 84.3405 470.718M75.8251 359.46C70.8352 359.46 66.7927 363.506 66.7927 368.493C66.7927 373.479 70.8386 377.529 75.8251 377.529C80.8116 377.529 84.8575 373.483 84.8575 368.493C84.8575 363.503 80.8116 359.46 75.8251 359.46Z" fill="white"/>
</mask>
<g mask="url(#mask0_1_49)">
<path d="M104.37 359.487H21.0536V502.715H104.37V359.487Z" fill="url(#paint0_linear_1_49)"/>
</g>
<mask id="mask1_1_49" style="mask-type:luminance" maskUnits="userSpaceOnUse" x="93" y="258" width="104" height="180">
<path d="M158.612 277.946C158.612 277.946 157.731 277.843 156.734 277.439C155.46 278.27 153.989 278.837 152.381 279.054C146.594 279.834 141.271 275.778 140.487 269.991C139.706 264.204 143.762 258.881 149.549 258.097C155.336 257.313 160.66 261.372 161.444 267.159C161.46 267.286 161.474 267.409 161.487 267.536C161.764 267.967 161.981 268.45 162.044 268.927C162.237 270.371 162.648 272.563 162.504 273.553C162.414 274.184 162.264 275.264 162.221 275.928C162.741 276.682 163.485 277.726 164.322 278.823C165.59 280.481 167.127 282.189 168.055 283.6C169.245 285.411 170.112 287.212 170.136 287.305C170.489 288.7 170.323 289.11 169.522 292.215C168.722 295.321 166.874 300.34 165.48 303.579C164.085 306.818 161.367 308.879 161.19 309.206C161.013 309.536 160.757 310.707 160.016 312.638C159.279 314.569 156.561 317.548 156.561 317.548L156.517 317.578L156.574 317.615C156.574 317.615 157.311 318.365 156.891 319.289C156.47 320.213 156.134 320.587 156.134 320.587C156.134 320.587 156.551 321.027 156.551 321.921C156.551 322.244 156.37 322.678 156.144 323.102C156.284 323.272 156.504 323.568 156.564 323.855C156.727 324.616 156.417 325.39 155.89 325.897C155.89 325.897 155.84 332.331 154.759 335.019C153.679 337.707 153.285 342.444 153.215 344.599C153.389 344.875 153.949 345.312 153.949 345.312L154.473 346.92L153.118 347.67L154.166 349.248C154.166 349.248 161.317 356.993 155.893 368.6C155.326 369.811 154.779 370.975 154.252 372.093C153.956 374.107 153.602 376.442 153.328 377.226C152.828 378.653 154.009 380.825 153.912 381.946C153.815 383.07 154.246 385.034 154.252 385.284C154.259 385.535 155.08 386.892 153.022 388.086L152.982 388.109C153.218 390.288 152.912 391.969 152.912 391.969C152.912 391.969 152.832 392.202 155.897 392.285C158.959 392.372 163.231 394.013 165.52 395.758C167.808 397.502 173.188 399.517 173.188 399.517C173.188 399.517 173.218 399.46 173.284 399.32C173.351 399.183 173.695 399.07 174.172 399.327C174.649 399.58 180.126 402.225 180.126 402.225C180.126 402.225 180.119 401.975 180.422 401.351C180.726 400.727 182.841 400.738 183.298 400.554C186.473 399.273 185.709 398.936 189.475 398.806C191.143 398.746 191.599 405.024 191.473 406.364C191.336 407.825 192.7 407.642 192.7 407.642C195.539 413.356 196.029 415.917 196.196 421.851C196.196 421.851 194.411 422.365 193.16 422.338C191.823 422.311 191.436 418.429 190.119 417.895L189.501 417.645C189.501 417.645 189.685 417.565 188.404 415.88C187.123 414.196 184.685 412.155 184.685 412.155C184.685 412.155 183.077 412.788 182.761 412.692C182.444 412.595 181.203 410.821 181.203 410.821L178.211 411.254C178.211 411.254 177.554 410.901 177.437 410.444C177.32 409.987 178.318 408.743 178.318 408.743C178.318 408.743 177.47 407.802 173.598 406.881C169.729 405.961 169.499 406.521 160.827 404.75C154.433 403.446 148.229 401.785 145.413 401.001C146.047 404.63 146.381 407.732 146.928 410.147C147.478 412.558 149.363 416.868 149.363 416.868C149.363 416.868 150.17 417.091 151.08 418.299C151.994 419.506 152.538 421.07 152.538 421.07C152.538 421.07 154.226 423.689 154.496 424.653C154.766 425.617 154.839 426.16 154.839 426.16C154.839 426.16 152.401 429.499 150.417 430.82C148.432 432.144 148.312 433.552 145.627 435.049C142.945 436.55 140.804 437.197 138.943 437.171C137.082 437.144 136.464 436.59 136.464 436.59L136.051 434.189C136.051 434.189 136.791 432.905 137.552 432.164C138.312 431.424 139.136 430.496 139.136 430.496C139.136 430.496 138.666 430.09 139.503 428.895C140.34 427.701 141.511 425.543 141.511 425.543C141.511 425.543 140.804 423.369 140.881 422.398C140.957 421.431 142.118 420.774 142.118 420.774C142.118 420.774 140.237 418.045 140.564 417.391C140.891 416.738 141.731 416.594 141.731 416.594C141.731 416.594 141.097 414.143 139.943 411.554C138.789 408.963 134.89 400.888 134.006 399.247C133.122 397.606 131.658 394.57 131.615 394.477C131.218 393.846 130.22 392.302 129.21 391.058C127.912 389.457 126.825 386.552 127.756 384.207C128.519 382.279 129.433 378.67 130.401 376.676L128.523 375.405C128.523 375.405 130.631 373.247 131.448 371.889C132.262 370.532 132.722 369.414 132.722 369.414C132.722 369.414 130.911 363.804 131.661 359.932C132.415 356.056 132.369 354.065 132.369 354.065C132.369 354.065 131.274 352.407 131.655 350.983C131.655 350.983 130.818 343.551 130.611 342.44C130.404 341.33 129.337 340.199 129.547 338.478C129.757 336.757 129.173 336.53 129.09 335.099C129.006 333.668 129.367 333.648 128.896 332.851C128.429 332.054 127.962 331.674 128.353 330.456C128.743 329.239 128.283 329.105 128.179 327.928C128.106 327.114 128.356 326.891 128.426 326.46C127.242 327.318 125.191 328.702 123.243 329.492C120.271 330.7 119.6 330.676 117.492 331.907C115.384 333.135 114.807 333.602 112.579 332.514C110.351 331.427 106.535 329.476 105.038 327.014C104.304 325.807 103.323 324.082 102.516 322.638C100.648 322.228 97.9633 319.629 97.6098 319.573C97.2262 319.509 95.385 319.786 95.385 319.786C95.385 319.786 95.1715 319.93 94.4377 320.577C93.7006 321.227 92.9668 320.5 93.0068 320.35C93.0435 320.2 93.9875 318.749 94.2943 318.462C94.6012 318.175 96.4891 317.701 96.4891 317.701C96.4891 317.701 95.8386 316.828 95.0615 316.467C94.848 316.367 94.2243 316.307 93.9975 316.247C92.9635 315.967 93.3137 315.146 93.5572 314.81C93.8007 314.473 95.8353 314.91 95.8353 314.91C95.8353 314.91 95.3783 313.879 95.6285 313.702C95.7252 313.632 96.1388 313.295 96.5724 313.329C97.2595 313.379 98.3536 313.929 98.3536 313.929C98.3536 313.929 98.1635 313.699 98.3002 313.259C98.437 312.818 99.1174 312.491 99.6844 312.518C100.251 312.541 102.433 313.282 102.803 313.766C103.173 314.249 104.384 316.831 104.384 316.831C104.384 316.831 104.314 314.953 104.581 314.526C104.848 314.099 105.378 314.253 105.578 314.326C105.775 314.399 105.908 315.323 105.968 315.764C106.028 316.204 106.365 317.098 106.449 317.708C106.532 318.319 106.402 319.499 106.402 319.499L106.342 319.529C107.336 320.487 108.8 321.831 109.317 322.007C110.131 322.284 113.396 322.331 115.134 324.092L115.348 324.309C117.279 323.625 118.543 322.411 118.59 322.368C118.733 322.218 118.87 322.081 118.997 321.961C120.151 320.847 121.732 320.76 121.732 320.76C121.732 320.76 122.436 317.335 125.084 315.59C127.732 313.846 131.198 314.313 131.198 314.313C131.198 314.313 134.246 312.848 135.27 312.208C135.814 311.868 136.811 311.414 137.629 311.061L137.772 310.157C137.772 310.157 135.254 309.92 134.747 309.029C134.386 308.399 134.333 305.063 134.276 303.939C134.236 303.176 134.386 302.885 134.717 302.418C135.047 301.951 135.47 301.334 135.377 300.644C135.284 299.954 134.627 299.143 135.914 296.818C137.365 294.203 141.905 293.062 144.61 294.086C147.531 295.194 149.473 298.493 149.136 301.925C148.862 304.717 146.517 307.041 146.548 308.439C146.551 308.616 146.651 308.896 146.774 309.183C148.028 307.832 150.503 305.21 151.627 304.37C153.165 303.219 154.436 303.186 154.436 303.186C154.436 303.186 156.414 297.509 159.873 293.933C161.42 292.335 162.431 290.974 163.078 289.96C161.05 287.489 161.264 285.151 160.77 282.956C160.503 281.765 159.396 279.46 158.632 277.946" fill="white"/>
</mask>
<g mask="url(#mask1_1_49)">
<path d="M196.189 257.313H92.95V437.197H196.189V257.313Z" fill="url(#paint1_linear_1_49)"/>
</g>
<path fill-rule="evenodd" clip-rule="evenodd" d="M268.314 437.324C267.942 437.585 267.478 437.781 266.903 437.833C264.995 438.002 264.326 438.094 264.326 438.094C264.326 438.094 263.868 437.999 263.745 438.288C263.625 438.577 263.619 438.638 263.619 438.638C261.158 438.537 258.31 437.849 255.815 438.064C255.815 438.064 255.671 437.597 255.425 437.471C255.139 437.324 249.554 436.78 248.556 436.808C248.556 436.808 248.215 436.163 247.542 435.982C246.869 435.8 246.273 436.23 246.273 436.23C246.273 436.23 246.414 435.389 246.095 435.073C245.775 434.756 245.21 434.941 245.21 434.941C244.574 434.839 243.022 433.38 243.047 433.359L244.11 432.475C244.11 432.475 239.784 428 238.346 425.995C236.908 423.989 237.08 424.143 236.804 423.652L235.354 422.171C235.354 422.171 235.6 419.54 235.108 418.941L237.262 419.444C237.729 420.022 246.46 424.994 246.512 424.284C246.516 424.232 246.571 424.118 246.66 423.962C249.606 425.205 252.679 427.146 255.106 428.602C257.763 430.196 259.502 431.836 259.502 431.836C259.502 431.836 259.321 432.161 259.37 432.392C259.419 432.622 260.215 432.693 260.445 433.298C260.676 433.903 261.327 435.085 262.341 435.929C263.355 436.774 265.312 437.572 265.312 437.572C265.312 437.572 266.814 437.474 267.785 437.023L268.307 437.324H268.314ZM230.684 433.697C232.503 435.278 234.749 438.57 234.749 438.57C235.12 438.66 235.852 438.365 236.168 438.039C236.168 438.039 241.167 442.845 243.099 442.965C245.032 443.085 249.815 443.653 252.012 443.604C254.209 443.555 254.531 443.622 254.746 443.404C254.964 443.186 255.093 443.023 255.093 443.023C258.882 443.493 263.736 442.689 263.736 442.689L264.074 443.125C264.074 443.125 266.151 442.956 268.857 442.956C271.564 442.956 273.641 443.582 274.268 443.125C274.547 442.919 275.202 442.289 275.841 441.629C283.629 446.015 298.683 454.466 300.096 455.667C301.891 457.193 312.92 464.634 315.16 465.248C318.171 466.071 320.349 462.067 318.023 459.988C316.294 458.443 303.866 453.084 301.608 452.408C299.869 451.886 285.273 444.215 277.272 440.017C277.361 439.897 277.411 439.808 277.411 439.768C277.411 439.479 277.53 437.354 277.337 437.017C277.143 436.679 276.443 436.028 275.887 436.412C275.331 436.799 274.993 436.7 274.993 436.7C274.993 436.7 274.074 436.049 273.761 436.049C273.447 436.049 273.109 436.074 273.109 436.074C273.109 436.074 271.976 435.131 271.42 435.131C270.864 435.131 270.092 435.036 269.776 435.469C269.699 435.573 269.604 435.757 269.475 435.979C269.211 435.843 268.971 435.718 268.75 435.607C269.051 434.514 269.472 433.116 269.373 432.404C269.254 431.535 267.635 429.916 265.751 428.685C263.868 427.453 263.794 428.685 263.118 428.154C262.442 427.622 261.072 426.977 261.072 426.977L260.679 427.334C260.679 427.334 256.694 424.339 255.8 423.351C254.906 422.362 254.712 422.263 254.712 422.263L254.276 422.227L249.969 418.845L250.064 418.072C245.241 414.006 243.194 415.019 239.363 408.969C239.363 408.969 238.082 406.869 236.319 406.193C235.471 405.867 234.5 405.493 233.458 405.109C233.756 405.001 234.137 404.965 233.922 404.55C233.658 404.037 233.151 403.813 233.151 403.813C233.151 403.813 233.566 403.911 234.045 403.936C234.524 403.957 234.801 403.739 234.712 403.527C234.623 403.315 234.736 402.477 234.736 402.477C234.736 402.477 235.299 402.502 235.916 402.511C236.534 402.52 236.739 401.992 236.527 401.411C236.205 400.539 236.122 399.873 236.288 398.967C236.383 398.457 236.546 398.586 237.397 397.901C237.529 397.794 237.649 397.49 237.726 397.06L238.629 397.1C241.732 397.318 243.434 398.519 243.025 395.881C242.89 395.005 242.626 393.992 242.113 393.519C241.114 392.598 239.339 392.493 238.429 392.318C237.391 388.108 233.796 385 229.523 385C224.73 385 220.791 388.906 220.355 393.897C220.121 394.376 220.134 394.351 219.919 394.634C219.335 395.401 220.155 396.246 221.089 396.335C221.135 397.312 221.261 399.329 221.433 399.725C221.525 399.94 221.581 400.131 221.621 400.266C221.51 400.505 221.43 400.653 221.43 400.653C220.582 402.204 219.697 402.981 219.006 403.371C218.782 403.242 218.548 403.11 218.376 403.008L217.903 403.997L218.287 404.111C216.505 405.64 213.642 408.226 213.117 409.473C212.342 411.306 213.117 409.568 211.86 416.137C210.603 422.706 208.238 425.482 206.981 430.89C205.725 436.298 205.823 439.197 206.499 440.256C206.594 440.407 206.917 440.607 207.402 440.84L207.15 443.033C207.15 443.033 204.929 446.727 205.7 450.879C206.474 455.031 210.579 460.826 211.255 462.371C211.931 463.915 213.476 473.187 213.476 473.187C213.476 473.187 213.402 475.192 213.839 476.037C214.272 476.881 214.613 477.219 214.613 477.219C214.613 477.219 214.106 477.701 214.395 478.524C214.683 479.344 215.12 479.851 215.12 479.851C215.12 479.851 214.782 478.549 208.404 482.796C202.026 487.046 187.245 492.549 187.245 492.549C187.245 492.549 187.26 493.114 187.337 493.953C186.753 494.027 186.176 494.1 186.176 494.1C186.176 494.1 184.701 493.182 181.853 493.449C179.002 493.713 177.168 494.318 177.168 494.318C177.168 494.318 176.661 496.056 177.41 498.955C178.16 501.851 178.762 500.887 178.762 504.993C178.762 509.099 180.114 515.471 181.807 516.823C183.496 518.174 183.788 518.223 183.788 518.223C183.788 518.223 185.672 518.079 185.672 515.855C185.672 513.632 186.157 508.322 187.555 506.341C188.953 504.36 189.85 502.988 190.658 501.762C191.343 502.309 191.887 502.592 191.887 502.592C191.887 502.592 213.722 493.222 218.023 491.775C222.321 490.326 227.354 488.8 228.263 486.103C229.172 483.407 229.317 476.758 229.679 468.832C231.575 473.039 233.025 476.626 234.543 478.862C236.057 481.098 238.408 484.85 238.408 484.85C238.408 484.85 238.503 489.485 245.751 497.211C252.998 504.938 253.382 508.896 253.382 508.896L254.633 508.362C254.307 508.743 253.456 509.695 253.044 512.253C252.632 514.811 252.719 517.007 252.719 517.007C252.719 517.007 254.276 517.931 257.269 517.928C260.261 517.928 259.478 517.102 263.453 518.125C267.429 519.147 273.942 519.427 275.675 518.128C277.408 516.829 277.524 516.558 277.524 516.558C277.524 516.558 277.853 514.697 275.702 514.145C273.552 513.592 268.713 512.016 266.956 509.95C265.198 507.88 263.306 505.816 262.538 504.975L263.527 504.551C263.527 504.551 254.497 488.06 252.608 484.365C250.722 480.671 250.116 480.265 249.188 478.988C248.989 478.021 249.023 477.557 248.35 475.963C247.677 474.369 243.714 467.659 243.692 467.622L234.156 450.756L233.633 450.001C233.154 448.256 232.583 446.303 232.263 445.25C231.87 443.963 230.441 442.931 229.249 442.332C229.427 442.022 229.563 441.727 229.615 441.482C229.858 440.349 229.879 439.744 229.879 439.744L229.421 438.706C229.421 438.706 230.801 436.697 230.681 433.685L230.684 433.697Z" fill="url(#paint2_linear_1_49)"/>
<defs>
<linearGradient id="paint0_linear_1_49" x1="62.7118" y1="359.487" x2="62.7118" y2="502.715" gradientUnits="userSpaceOnUse">
<stop stop-color="#161616"/>
<stop offset="1" stop-color="#7C7C7C"/>
</linearGradient>
<linearGradient id="paint1_linear_1_49" x1="144.569" y1="257.313" x2="144.569" y2="437.197" gradientUnits="userSpaceOnUse">
<stop stop-color="#E80629"/>
<stop offset="1" stop-color="#820317"/>
</linearGradient>
<linearGradient id="paint2_linear_1_49" x1="277.258" y1="406.035" x2="212.249" y2="510.906" gradientUnits="userSpaceOnUse">
<stop stop-color="#01408D"/>
<stop offset="1" stop-color="#0869DE"/>
</linearGradient>
<clipPath id="clip0_1_49">
<rect width="13.4158" height="13.4158" fill="white" transform="translate(65.6754 55.6815)"/>
</clipPath>
<clipPath id="clip1_1_49">
<rect width="13.4158" height="13.4158" fill="white" transform="translate(236.985 55.6815)"/>
</clipPath>
</defs>
</svg>
