<svg width="54" height="60" viewBox="0 0 54 60" fill="none" xmlns="http://www.w3.org/2000/svg">
<path d="M45 0H9C6.61305 0 4.32387 0.948212 2.63604 2.63604C0.948212 4.32387 0 6.61305 0 9V51C0 53.3869 0.948212 55.6761 2.63604 57.364C4.32387 59.0518 6.61305 60 9 60H45C47.3869 60 49.6761 59.0518 51.364 57.364C53.0518 55.6761 54 53.3869 54 51V9C54 6.61305 53.0518 4.32387 51.364 2.63604C49.6761 0.948212 47.3869 0 45 0ZM15 10.5H27C27.7956 10.5 28.5587 10.8161 29.1213 11.3787C29.6839 11.9413 30 12.7044 30 13.5C30 14.2956 29.6839 15.0587 29.1213 15.6213C28.5587 16.1839 27.7956 16.5 27 16.5H15C14.2044 16.5 13.4413 16.1839 12.8787 15.6213C12.3161 15.0587 12 14.2956 12 13.5C12 12.7044 12.3161 11.9413 12.8787 11.3787C13.4413 10.8161 14.2044 10.5 15 10.5ZM39 49.5H15C14.2044 49.5 13.4413 49.1839 12.8787 48.6213C12.3161 48.0587 12 47.2957 12 46.5C12 45.7043 12.3161 44.9413 12.8787 44.3787C13.4413 43.8161 14.2044 43.5 15 43.5H39C39.7957 43.5 40.5587 43.8161 41.1213 44.3787C41.6839 44.9413 42 45.7043 42 46.5C42 47.2957 41.6839 48.0587 41.1213 48.6213C40.5587 49.1839 39.7957 49.5 39 49.5ZM39 38.49H15C14.2044 38.49 13.4413 38.1739 12.8787 37.6113C12.3161 37.0487 12 36.2856 12 35.49C12 34.6944 12.3161 33.9313 12.8787 33.3687C13.4413 32.8061 14.2044 32.49 15 32.49H39C39.7957 32.49 40.5587 32.8061 41.1213 33.3687C41.6839 33.9313 42 34.6944 42 35.49C42 36.2856 41.6839 37.0487 41.1213 37.6113C40.5587 38.1739 39.7957 38.49 39 38.49ZM39 27.51H15C14.2044 27.51 13.4413 27.1939 12.8787 26.6313C12.3161 26.0687 12 25.3056 12 24.51C12 23.7144 12.3161 22.9513 12.8787 22.3887C13.4413 21.8261 14.2044 21.51 15 21.51H39C39.7957 21.51 40.5587 21.8261 41.1213 22.3887C41.6839 22.9513 42 23.7144 42 24.51C42 25.3056 41.6839 26.0687 41.1213 26.6313C40.5587 27.1939 39.7957 27.51 39 27.51Z" fill="white"/>
</svg>
